<svg id="svg" version="1.1" xmlns="http://www.w3.org/2000/svg" xmlns:xlink="http://www.w3.org/1999/xlink" width="400" height="400" viewBox="0, 0, 400,400"><g id="svgg"><path id="path0" d="M223.600 35.232 C 222.830 35.422,221.120 35.779,219.800 36.025 C 218.480 36.271,216.590 36.645,215.600 36.855 C 213.227 37.358,210.658 37.884,208.200 38.369 C 207.100 38.586,205.390 38.935,204.400 39.145 C 203.410 39.354,201.520 39.739,200.200 40.000 C 198.880 40.261,197.080 40.621,196.200 40.800 C 195.320 40.979,193.520 41.339,192.200 41.600 C 190.015 42.032,189.171 42.207,185.400 43.014 C 183.000 43.527,178.162 44.510,176.600 44.802 C 175.720 44.967,168.160 46.496,159.800 48.201 C 151.440 49.906,143.880 51.442,143.000 51.614 C 140.161 52.168,136.641 52.866,135.000 53.200 C 134.120 53.379,132.320 53.739,131.000 54.000 C 129.680 54.261,127.835 54.637,126.900 54.837 C 125.965 55.037,124.435 55.363,123.500 55.563 C 122.565 55.763,120.720 56.139,119.400 56.400 C 118.080 56.661,116.280 57.021,115.400 57.200 C 114.520 57.379,112.720 57.739,111.400 58.000 C 106.686 58.931,105.772 59.119,103.600 59.600 C 102.390 59.868,100.680 60.231,99.800 60.407 C 97.089 60.948,93.478 61.659,91.800 61.983 C 90.920 62.153,83.360 63.692,75.000 65.404 C 66.640 67.116,58.990 68.662,58.000 68.840 C 57.010 69.018,55.390 69.335,54.400 69.545 C 53.410 69.754,51.520 70.139,50.200 70.400 C 48.880 70.661,46.990 71.046,46.000 71.255 C 42.715 71.951,40.422 72.396,38.432 72.724 C 37.350 72.902,36.181 73.284,35.834 73.572 C 35.262 74.046,35.213 86.011,35.302 202.541 L 35.400 330.986 37.000 331.292 C 39.900 331.847,45.414 332.829,49.700 333.556 C 50.855 333.752,55.400 334.548,59.800 335.326 C 64.200 336.104,70.500 337.212,73.800 337.788 C 79.792 338.834,84.646 339.693,88.800 340.443 C 91.920 341.006,95.471 341.621,97.800 342.000 C 98.900 342.179,100.970 342.539,102.400 342.800 C 103.830 343.061,105.945 343.437,107.100 343.637 C 108.255 343.837,110.145 344.174,111.300 344.386 C 112.455 344.598,114.570 344.971,116.000 345.215 C 119.074 345.739,121.972 346.249,125.000 346.800 C 126.210 347.020,128.145 347.363,129.300 347.563 C 130.455 347.763,132.570 348.138,134.000 348.397 C 135.430 348.656,137.500 349.031,138.600 349.230 C 139.700 349.429,141.680 349.764,143.000 349.973 C 144.320 350.182,146.390 350.535,147.600 350.758 C 148.810 350.981,151.870 351.519,154.400 351.954 C 160.880 353.069,169.798 354.641,175.200 355.620 C 177.730 356.078,180.790 356.613,182.000 356.807 C 183.210 357.001,185.280 357.358,186.600 357.600 C 187.920 357.842,190.080 358.226,191.400 358.454 C 192.720 358.682,194.610 359.018,195.600 359.200 C 199.915 359.995,202.735 360.496,204.600 360.800 C 205.700 360.979,207.770 361.339,209.200 361.600 C 210.630 361.861,212.700 362.221,213.800 362.400 C 214.900 362.579,216.970 362.938,218.400 363.197 C 219.830 363.456,221.810 363.806,222.800 363.974 C 223.790 364.142,224.870 364.352,225.200 364.440 C 225.733 364.582,225.800 346.097,225.800 199.833 C 225.800 90.316,225.666 35.036,225.400 34.976 C 225.180 34.927,224.370 35.042,223.600 35.232 M233.600 127.799 L 233.600 149.197 292.100 149.299 L 350.600 149.400 350.701 213.976 C 350.782 265.372,350.700 278.616,350.301 278.870 C 350.026 279.045,323.655 279.191,291.700 279.194 L 233.600 279.200 233.600 285.200 L 233.600 291.200 293.380 291.200 C 353.749 291.200,355.647 291.158,358.312 289.775 C 361.124 288.317,363.372 285.330,364.350 281.754 C 365.012 279.331,364.989 118.511,364.326 115.531 C 363.646 112.477,360.453 108.052,358.900 108.013 C 358.625 108.006,358.400 107.864,358.400 107.697 C 358.400 106.465,355.193 106.400,294.406 106.400 L 233.600 106.400 233.600 127.799 M134.976 140.059 C 140.169 141.041,149.442 144.530,149.933 145.686 C 150.007 145.859,150.260 146.000,150.497 146.000 C 151.289 146.000,156.362 150.005,159.112 152.800 C 162.766 156.514,168.800 165.940,168.800 167.934 C 168.800 168.131,169.139 169.172,169.554 170.247 C 170.567 172.872,172.238 178.628,173.025 182.200 C 175.419 193.078,175.339 209.671,172.846 219.400 C 172.620 220.280,172.324 221.540,172.188 222.200 C 172.051 222.860,171.782 223.760,171.590 224.200 C 171.398 224.640,170.948 225.900,170.591 227.000 C 169.806 229.420,169.188 230.835,167.115 234.968 C 165.533 238.121,165.235 238.611,162.211 243.030 C 160.408 245.664,154.505 251.792,152.400 253.215 C 151.630 253.736,150.910 254.284,150.800 254.434 C 150.290 255.131,143.124 258.800,142.274 258.800 C 141.929 258.800,141.549 258.959,141.429 259.154 C 141.308 259.349,140.623 259.625,139.905 259.769 C 139.187 259.913,137.700 260.221,136.600 260.455 C 133.508 261.110,123.358 261.333,120.600 260.806 C 117.138 260.143,114.717 259.573,113.800 259.203 C 113.360 259.026,112.370 258.654,111.600 258.377 C 96.784 253.042,85.738 239.689,82.004 222.600 C 79.583 211.522,79.400 209.972,79.400 200.600 C 79.400 195.223,79.587 190.944,79.882 189.600 C 80.147 188.390,80.573 186.230,80.829 184.800 C 83.050 172.395,88.681 161.217,96.759 153.178 C 100.267 149.687,104.985 146.000,105.945 146.000 C 106.158 146.000,106.393 145.858,106.467 145.685 C 106.591 145.393,109.109 144.114,112.400 142.673 C 114.046 141.952,118.642 140.590,121.200 140.065 C 123.814 139.529,132.155 139.525,134.976 140.059 M262.800 171.400 L 262.800 183.200 273.800 183.200 L 284.800 183.200 284.800 171.400 L 284.800 159.600 273.800 159.600 L 262.800 159.600 262.800 171.400 M290.800 171.400 L 290.800 183.200 301.788 183.200 L 312.777 183.200 312.888 171.400 L 313.000 159.600 301.900 159.600 L 290.800 159.600 290.800 171.400 M318.800 171.406 L 318.800 183.213 329.900 183.106 L 341.000 183.000 341.106 171.300 L 341.212 159.600 330.006 159.600 L 318.800 159.600 318.800 171.406 M121.800 163.249 C 120.335 163.586,118.771 164.187,116.560 165.263 C 113.815 166.597,108.173 172.222,106.946 174.847 C 102.536 184.286,101.407 189.613,101.403 201.000 C 101.400 209.523,101.978 213.519,104.182 220.200 C 111.757 243.157,138.416 244.169,146.330 221.800 C 148.351 216.087,150.375 200.952,149.643 197.027 C 149.399 195.721,149.200 193.969,149.200 193.132 C 149.200 192.296,149.030 190.844,148.823 189.906 C 148.615 188.968,148.239 187.210,147.986 186.000 C 146.540 179.076,143.097 171.755,139.821 168.638 C 138.600 167.475,134.667 164.800,134.180 164.800 C 134.037 164.800,133.354 164.544,132.660 164.230 C 129.744 162.912,125.089 162.491,121.800 163.249 M234.579 190.110 C 234.474 190.385,234.435 195.702,234.494 201.926 L 234.600 213.242 245.400 213.242 L 256.200 213.241 256.200 201.521 L 256.200 189.800 245.486 189.705 C 237.207 189.631,234.728 189.723,234.579 190.110 M262.984 190.099 C 262.876 190.380,262.835 195.705,262.894 201.932 L 263.000 213.253 273.917 213.326 C 284.534 213.398,284.840 213.378,285.030 212.600 C 285.137 212.160,285.174 206.850,285.112 200.800 L 285.000 189.800 274.090 189.694 C 265.521 189.610,263.138 189.697,262.984 190.099 M290.981 190.105 C 290.874 190.383,290.835 195.708,290.894 201.938 L 291.000 213.265 301.800 213.240 C 307.740 213.227,312.735 213.212,312.900 213.208 C 313.574 213.190,313.245 190.103,312.567 189.843 C 311.229 189.329,291.185 189.573,290.981 190.105 M318.987 190.088 C 318.877 190.375,318.835 195.702,318.894 201.926 L 319.000 213.242 329.700 213.231 C 335.585 213.225,340.585 213.216,340.810 213.210 C 341.468 213.194,341.302 190.125,340.642 189.871 C 339.334 189.370,319.186 189.571,318.987 190.088 M234.494 229.814 L 234.600 241.640 245.317 241.720 C 255.737 241.798,256.040 241.778,256.230 241.000 C 256.337 240.560,256.374 235.250,256.312 229.200 L 256.200 218.200 245.294 218.094 L 234.388 217.987 234.494 229.814 M262.800 229.794 C 262.800 236.287,262.935 241.603,263.100 241.608 C 277.329 241.964,284.846 241.756,285.030 241.000 C 285.137 240.560,285.174 235.250,285.112 229.200 L 285.000 218.200 273.900 218.094 L 262.800 217.987 262.800 229.794 M290.894 229.814 L 291.000 241.642 301.759 241.642 C 307.677 241.641,312.675 241.485,312.866 241.294 C 313.057 241.103,313.165 235.829,313.106 229.574 L 313.000 218.200 301.894 218.094 L 290.788 217.987 290.894 229.814 M318.894 229.814 L 319.000 241.642 329.759 241.642 C 335.677 241.641,340.675 241.485,340.866 241.294 C 341.057 241.103,341.165 235.829,341.106 229.574 L 341.000 218.200 329.894 218.094 L 318.788 217.987 318.894 229.814 M234.573 248.444 C 234.438 248.663,234.338 254.007,234.351 260.321 L 234.375 271.800 245.200 271.800 L 256.026 271.800 256.019 260.300 C 256.016 253.975,256.010 248.615,256.006 248.389 C 255.998 247.837,234.915 247.891,234.573 248.444 M262.800 260.000 L 262.800 272.013 273.700 271.906 L 284.600 271.800 284.600 260.000 L 284.600 248.200 273.700 248.094 L 262.800 247.987 262.800 260.000 M290.800 260.016 L 290.800 272.013 301.700 271.906 L 312.600 271.800 312.695 260.520 C 312.747 254.315,312.687 248.971,312.562 248.644 C 312.368 248.138,310.717 248.047,301.567 248.034 L 290.800 248.019 290.800 260.016 " stroke="none" fill="#0473cc" fill-rule="evenodd"></path><path id="path1" d="M0.000 200.000 L 0.000 400.000 200.000 400.000 L 400.000 400.000 400.000 200.000 L 400.000 0.000 200.000 0.000 L 0.000 0.000 0.000 200.000 M226.600 199.600 L 226.600 365.000 225.000 364.943 C 223.524 364.891,221.634 364.602,216.100 363.586 C 210.327 362.525,209.266 362.347,207.600 362.160 C 206.610 362.049,205.440 361.797,205.000 361.600 C 204.560 361.403,203.390 361.151,202.400 361.040 C 201.410 360.929,199.520 360.641,198.200 360.400 C 196.880 360.159,194.990 359.871,194.000 359.760 C 193.010 359.649,191.840 359.401,191.400 359.208 C 190.960 359.016,189.700 358.744,188.600 358.603 C 187.500 358.463,185.655 358.180,184.500 357.974 C 183.345 357.768,181.365 357.415,180.100 357.189 C 178.835 356.963,176.720 356.606,175.400 356.396 C 174.080 356.186,172.100 355.829,171.000 355.603 C 168.991 355.191,166.988 354.847,161.800 354.027 C 160.260 353.783,157.020 353.232,154.600 352.801 C 152.180 352.371,149.030 351.826,147.600 351.589 C 146.170 351.353,144.280 351.004,143.400 350.815 C 142.520 350.626,140.540 350.270,139.000 350.024 C 135.388 349.446,132.235 348.865,130.094 348.384 C 129.156 348.173,127.707 348.000,126.874 348.000 C 126.041 348.000,125.189 347.837,124.980 347.639 C 124.771 347.440,123.790 347.177,122.800 347.054 C 120.018 346.707,116.348 346.077,104.900 343.978 C 103.635 343.747,101.700 343.460,100.600 343.342 C 99.500 343.223,98.429 342.963,98.220 342.763 C 98.011 342.563,97.012 342.400,96.000 342.400 C 94.988 342.400,93.989 342.237,93.780 342.037 C 93.571 341.837,92.500 341.577,91.400 341.458 C 90.300 341.340,88.320 341.047,87.000 340.808 C 85.680 340.569,83.610 340.217,82.400 340.026 C 80.399 339.711,78.365 339.351,73.200 338.400 C 72.210 338.218,70.172 337.872,68.672 337.632 C 66.074 337.216,56.701 335.599,52.000 334.755 C 49.893 334.377,47.454 333.950,42.900 333.163 C 41.745 332.963,39.855 332.656,38.700 332.480 C 37.545 332.304,36.195 331.938,35.700 331.666 L 34.800 331.172 34.800 202.235 C 34.800 99.566,34.902 73.216,35.300 72.896 C 35.575 72.676,36.430 72.393,37.200 72.270 C 37.970 72.146,39.500 71.846,40.600 71.604 C 42.544 71.176,44.386 70.798,48.300 70.025 C 49.345 69.818,50.740 69.537,51.400 69.399 C 52.060 69.262,53.500 68.972,54.600 68.754 C 55.700 68.537,57.320 68.203,58.200 68.012 C 59.080 67.821,60.790 67.471,62.000 67.233 C 63.210 66.995,66.810 66.266,70.000 65.612 C 73.190 64.959,76.880 64.231,78.200 63.995 C 79.520 63.759,81.410 63.394,82.400 63.183 C 85.032 62.623,88.398 61.991,90.000 61.756 C 90.770 61.643,91.760 61.393,92.200 61.200 C 92.998 60.850,94.595 60.559,98.000 60.143 C 98.990 60.022,99.971 59.760,100.180 59.561 C 100.389 59.363,101.233 59.200,102.056 59.200 C 102.879 59.200,103.664 59.020,103.800 58.800 C 103.936 58.580,104.836 58.400,105.800 58.400 C 106.764 58.400,107.664 58.220,107.800 58.000 C 107.936 57.780,108.811 57.600,109.744 57.600 C 110.677 57.600,111.611 57.438,111.820 57.241 C 112.029 57.044,112.920 56.783,113.800 56.661 C 114.680 56.540,116.390 56.244,117.600 56.004 C 118.810 55.763,120.430 55.473,121.200 55.359 C 121.970 55.244,122.960 54.995,123.400 54.806 C 123.840 54.616,124.920 54.358,125.800 54.232 C 126.680 54.107,128.300 53.814,129.400 53.583 C 130.500 53.352,132.210 53.000,133.200 52.800 C 134.190 52.600,135.810 52.265,136.800 52.055 C 137.790 51.846,139.590 51.484,140.800 51.253 C 142.010 51.021,146.060 50.208,149.800 49.447 C 153.540 48.685,157.680 47.849,159.000 47.589 C 160.320 47.329,162.210 46.955,163.200 46.758 C 166.798 46.042,169.430 45.557,170.800 45.356 C 171.570 45.243,172.560 44.993,173.000 44.800 C 173.767 44.464,175.126 44.212,178.600 43.762 C 179.480 43.648,180.560 43.396,181.000 43.202 C 181.440 43.008,182.430 42.756,183.200 42.641 C 183.970 42.527,185.590 42.238,186.800 42.000 C 188.010 41.762,189.630 41.473,190.400 41.359 C 191.170 41.244,192.160 40.993,192.600 40.800 C 193.040 40.607,194.030 40.356,194.800 40.241 C 195.570 40.127,197.190 39.838,198.400 39.600 C 199.610 39.362,201.230 39.073,202.000 38.959 C 202.770 38.844,203.760 38.595,204.200 38.406 C 204.640 38.216,205.720 37.958,206.600 37.832 C 207.480 37.707,209.100 37.414,210.200 37.183 C 211.300 36.952,213.010 36.603,214.000 36.406 C 214.990 36.210,216.340 35.932,217.000 35.789 C 217.660 35.647,219.545 35.266,221.188 34.943 C 222.832 34.620,224.265 34.268,224.373 34.160 C 224.482 34.052,225.027 34.017,225.585 34.082 L 226.600 34.200 226.600 199.600 M354.469 105.645 C 358.671 106.522,362.536 109.222,363.969 112.282 C 364.258 112.897,364.652 113.713,364.847 114.095 C 365.313 115.012,365.313 282.188,364.847 283.105 C 364.652 283.487,364.247 284.340,363.947 285.000 C 363.262 286.503,360.161 289.636,358.700 290.300 C 358.095 290.575,357.195 290.983,356.700 291.207 C 356.099 291.479,335.396 291.578,294.400 291.507 L 233.000 291.400 232.889 285.254 C 232.814 281.045,232.924 278.932,233.240 278.551 C 233.631 278.081,242.651 277.996,291.751 278.003 L 349.800 278.011 349.800 214.200 L 349.800 150.389 292.079 150.397 C 252.803 150.403,234.108 150.272,233.579 149.989 C 232.426 149.372,232.350 106.302,233.500 105.632 C 234.525 105.035,351.607 105.047,354.469 105.645 M122.200 140.808 C 118.531 141.240,116.840 141.611,116.571 142.046 C 116.451 142.241,116.001 142.400,115.571 142.400 C 115.141 142.400,114.477 142.559,114.095 142.753 C 113.713 142.948,112.950 143.285,112.400 143.503 C 105.677 146.165,95.615 153.865,92.939 158.396 C 92.548 159.058,92.108 159.600,91.962 159.600 C 91.816 159.600,91.473 160.140,91.200 160.800 C 90.927 161.460,90.545 162.000,90.351 162.000 C 90.158 162.000,90.000 162.170,90.000 162.379 C 90.000 162.587,89.356 163.856,88.569 165.199 C 86.080 169.446,83.546 176.090,82.392 181.400 C 82.200 182.280,81.845 183.810,81.602 184.800 C 79.803 192.132,79.800 208.971,81.597 217.000 C 81.843 218.100,82.136 219.630,82.247 220.400 C 82.358 221.170,82.598 222.160,82.779 222.600 C 82.960 223.040,83.330 224.210,83.601 225.200 C 84.928 230.050,89.249 240.211,90.405 241.200 C 90.533 241.310,91.072 242.030,91.603 242.800 C 95.132 247.925,103.953 254.586,110.800 257.297 C 111.350 257.515,112.113 257.852,112.495 258.047 C 112.877 258.241,113.541 258.400,113.971 258.400 C 114.401 258.400,114.864 258.580,115.000 258.800 C 115.136 259.020,115.856 259.200,116.600 259.200 C 117.344 259.200,118.064 259.380,118.200 259.600 C 118.336 259.820,119.012 260.000,119.703 260.000 C 120.393 260.000,122.426 260.212,124.221 260.472 C 127.590 260.959,136.566 260.302,137.041 259.533 C 137.155 259.350,137.856 259.200,138.600 259.200 C 139.344 259.200,140.064 259.020,140.200 258.800 C 140.336 258.580,140.715 258.400,141.043 258.400 C 141.371 258.400,142.384 258.040,143.294 257.600 C 144.205 257.160,145.186 256.800,145.475 256.800 C 145.764 256.800,146.000 256.662,146.000 256.494 C 146.000 256.326,146.676 255.896,147.503 255.538 C 154.953 252.310,164.923 239.912,169.164 228.600 C 169.659 227.280,170.230 225.887,170.432 225.505 C 170.634 225.123,170.800 224.369,170.800 223.829 C 170.800 223.289,170.959 222.749,171.154 222.629 C 171.498 222.416,171.614 221.971,172.413 217.800 C 172.624 216.700,173.006 214.720,173.261 213.400 C 173.870 210.254,173.870 191.463,173.261 188.000 C 173.009 186.570,172.615 184.410,172.385 183.200 C 172.155 181.990,171.864 180.413,171.739 179.696 C 171.614 178.979,171.351 178.294,171.156 178.173 C 170.960 178.052,170.800 177.344,170.800 176.600 C 170.800 175.856,170.620 175.136,170.400 175.000 C 170.180 174.864,170.000 174.401,170.000 173.971 C 170.000 173.541,169.834 172.877,169.630 172.495 C 169.427 172.113,168.513 169.878,167.598 167.529 C 163.605 157.274,156.461 149.454,146.800 144.768 C 144.930 143.860,143.087 142.957,142.705 142.759 C 142.323 142.562,141.569 142.400,141.029 142.400 C 140.489 142.400,139.936 142.220,139.800 142.000 C 139.664 141.780,139.102 141.600,138.550 141.600 C 137.999 141.600,137.238 141.435,136.861 141.233 C 135.890 140.713,125.551 140.414,122.200 140.808 M285.400 171.400 L 285.400 183.800 273.800 183.800 L 262.200 183.800 262.088 172.200 C 262.026 165.820,262.075 160.192,262.197 159.694 L 262.418 158.788 273.909 158.894 L 285.400 159.000 285.400 171.400 M313.400 171.400 L 313.400 183.800 301.800 183.800 L 290.200 183.800 290.094 171.804 C 290.036 165.207,290.076 159.579,290.184 159.298 C 290.338 158.897,292.846 158.810,301.890 158.894 L 313.400 159.000 313.400 171.400 M341.400 171.400 L 341.400 183.800 330.600 183.912 C 324.660 183.974,319.395 183.926,318.900 183.805 L 318.000 183.585 318.000 171.426 C 318.000 162.074,318.115 159.219,318.500 159.062 C 318.775 158.949,324.040 158.889,330.200 158.928 L 341.400 159.000 341.400 171.400 M132.800 163.467 C 135.813 164.576,138.911 166.591,140.864 168.712 C 142.515 170.505,144.800 173.784,144.800 174.360 C 144.800 174.589,145.123 175.366,145.519 176.088 C 145.914 176.810,146.486 178.210,146.791 179.200 C 147.095 180.190,147.469 181.180,147.622 181.400 C 147.775 181.620,148.001 182.340,148.125 183.000 C 148.249 183.660,148.554 185.010,148.803 186.000 C 150.651 193.351,150.641 207.724,148.782 215.200 C 148.536 216.190,148.240 217.676,148.125 218.503 C 148.010 219.329,147.755 220.105,147.558 220.226 C 147.361 220.348,147.200 220.799,147.200 221.229 C 147.200 221.659,147.040 222.323,146.844 222.705 C 146.648 223.087,146.063 224.300,145.544 225.400 C 145.025 226.500,144.465 227.460,144.300 227.533 C 144.135 227.607,144.000 227.929,144.000 228.250 C 144.000 230.009,135.959 236.517,132.200 237.801 C 128.260 239.147,125.114 239.503,122.960 238.847 C 122.322 238.652,120.990 238.260,120.000 237.975 C 115.967 236.814,108.458 231.572,108.409 229.883 C 108.404 229.709,108.067 229.209,107.659 228.771 C 106.938 227.997,105.160 224.636,103.763 221.406 C 101.059 215.156,99.508 200.505,100.774 193.167 C 100.979 191.975,101.348 189.740,101.593 188.200 C 102.351 183.442,105.685 174.470,107.167 173.200 C 107.295 173.090,108.026 172.190,108.791 171.200 C 115.009 163.150,124.039 160.242,132.800 163.467 M256.720 189.280 C 257.406 189.966,257.406 213.234,256.720 213.920 C 255.787 214.853,234.123 214.578,233.614 213.626 C 233.357 213.146,233.200 208.592,233.200 201.600 C 233.200 194.608,233.357 190.054,233.614 189.574 C 234.123 188.622,255.787 188.347,256.720 189.280 M285.400 201.600 L 285.400 214.200 273.900 214.306 L 262.400 214.412 262.400 201.873 C 262.400 194.976,262.523 189.211,262.673 189.061 C 262.823 188.911,267.998 188.836,274.173 188.894 L 285.400 189.000 285.400 201.600 M313.400 201.600 L 313.400 214.200 302.000 214.200 L 290.600 214.200 290.494 202.004 C 290.436 195.296,290.476 189.579,290.584 189.298 C 290.738 188.897,293.210 188.810,302.090 188.894 L 313.400 189.000 313.400 201.600 M341.400 201.600 L 341.400 214.200 330.249 214.306 C 322.356 214.382,318.937 214.280,318.549 213.957 C 317.795 213.332,317.735 190.025,318.486 189.274 C 318.850 188.910,321.799 188.815,330.186 188.894 L 341.400 189.000 341.400 201.600 M256.706 217.533 C 257.100 217.783,257.188 220.555,257.106 230.027 L 257.000 242.200 245.427 242.306 C 236.436 242.389,233.783 242.300,233.534 241.906 C 232.986 241.043,233.124 218.236,233.680 217.680 C 234.236 217.124,255.844 216.986,256.706 217.533 M285.400 229.800 L 285.400 242.200 273.900 242.306 L 262.400 242.412 262.400 229.800 L 262.400 217.188 273.900 217.294 L 285.400 217.400 285.400 229.800 M313.506 229.900 L 313.611 242.400 302.006 242.400 L 290.400 242.400 290.400 229.794 L 290.400 217.188 301.900 217.294 L 313.400 217.400 313.506 229.900 M341.506 229.906 L 341.611 242.412 329.906 242.306 L 318.200 242.200 318.088 230.600 C 318.026 224.220,318.075 218.592,318.197 218.094 L 318.418 217.188 329.909 217.294 L 341.400 217.400 341.506 229.906 M256.957 248.233 C 257.447 249.510,257.228 271.812,256.720 272.320 C 255.902 273.138,233.760 272.993,233.443 272.167 C 233.111 271.302,233.133 248.200,233.467 247.867 C 234.112 247.221,256.704 247.573,256.957 248.233 M285.512 259.400 C 285.574 265.780,285.525 271.405,285.404 271.900 L 285.185 272.800 273.835 272.800 C 263.855 272.800,262.456 272.724,262.243 272.167 C 261.907 271.292,261.935 248.198,262.273 247.861 C 262.423 247.711,267.688 247.636,273.973 247.694 L 285.400 247.800 285.512 259.400 M313.512 259.400 C 313.574 265.780,313.525 271.405,313.404 271.900 L 313.185 272.800 301.872 272.800 C 293.607 272.800,290.431 272.671,290.080 272.320 C 289.571 271.811,289.353 249.508,289.845 248.227 C 290.063 247.659,291.378 247.600,301.745 247.694 L 313.400 247.800 313.512 259.400 " stroke="none" fill="#fbfbfc" fill-rule="evenodd"></path><path id="path2" d="M226.598 199.800 C 226.598 290.440,226.644 327.460,226.700 282.067 C 226.756 236.674,226.756 162.514,226.700 117.267 C 226.644 72.020,226.598 109.160,226.598 199.800 M360.400 108.525 C 360.400 108.594,360.985 109.179,361.700 109.825 L 363.000 111.000 361.825 109.700 C 360.730 108.488,360.400 108.216,360.400 108.525 M364.996 198.600 C 364.996 243.700,365.043 262.091,365.100 239.468 C 365.157 216.846,365.157 179.946,365.100 157.468 C 365.043 134.991,364.996 153.500,364.996 198.600 M233.537 149.697 C 233.701 149.861,260.053 150.041,292.097 150.097 C 324.142 150.154,350.226 150.066,350.063 149.903 C 349.899 149.739,323.547 149.559,291.503 149.503 C 259.458 149.446,233.374 149.534,233.537 149.697 M97.781 152.500 L 96.200 154.200 97.900 152.619 C 99.481 151.148,99.784 150.800,99.481 150.800 C 99.416 150.800,98.651 151.565,97.781 152.500 M313.377 171.200 C 313.377 177.690,313.432 180.345,313.499 177.100 C 313.566 173.855,313.566 168.545,313.499 165.300 C 313.432 162.055,313.377 164.710,313.377 171.200 M341.377 171.400 C 341.377 178.000,341.432 180.756,341.499 177.525 C 341.566 174.293,341.566 168.893,341.499 165.525 C 341.432 162.156,341.377 164.800,341.377 171.400 M340.712 189.500 C 341.112 189.783,341.199 192.478,341.112 201.911 C 341.050 208.539,341.138 213.823,341.306 213.654 C 341.946 213.013,341.457 189.482,340.800 189.303 C 340.344 189.178,340.323 189.226,340.712 189.500 M313.377 201.600 C 313.377 208.090,313.432 210.745,313.499 207.500 C 313.566 204.255,313.566 198.945,313.499 195.700 C 313.432 192.455,313.377 195.110,313.377 201.600 M80.093 191.600 C 80.093 192.370,80.175 192.685,80.276 192.300 C 80.376 191.915,80.376 191.285,80.276 190.900 C 80.175 190.515,80.093 190.830,80.093 191.600 M233.776 201.400 C 233.776 207.560,233.832 210.024,233.899 206.876 C 233.967 203.727,233.967 198.687,233.899 195.676 C 233.831 192.664,233.776 195.240,233.776 201.400 M256.575 201.600 C 256.575 207.650,256.631 210.125,256.699 207.100 C 256.767 204.075,256.767 199.125,256.699 196.100 C 256.631 193.075,256.575 195.550,256.575 201.600 M318.575 201.600 C 318.575 207.650,318.631 210.125,318.699 207.100 C 318.767 204.075,318.767 199.125,318.699 196.100 C 318.631 193.075,318.575 195.550,318.575 201.600 M174.093 193.600 C 174.093 194.370,174.175 194.685,174.276 194.300 C 174.376 193.915,174.376 193.285,174.276 192.900 C 174.175 192.515,174.093 192.830,174.093 193.600 M79.701 195.400 C 79.705 196.280,79.787 196.593,79.883 196.095 C 79.979 195.598,79.975 194.878,79.875 194.495 C 79.775 194.113,79.696 194.520,79.701 195.400 M174.493 200.800 C 174.493 201.570,174.575 201.885,174.676 201.500 C 174.776 201.115,174.776 200.485,174.676 200.100 C 174.575 199.715,174.493 200.030,174.493 200.800 M79.701 206.200 C 79.705 207.080,79.787 207.393,79.883 206.895 C 79.979 206.398,79.975 205.678,79.875 205.295 C 79.775 204.913,79.696 205.320,79.701 206.200 M174.093 208.000 C 174.093 208.770,174.175 209.085,174.276 208.700 C 174.376 208.315,174.376 207.685,174.276 207.300 C 174.175 206.915,174.093 207.230,174.093 208.000 M313.200 229.720 L 313.399 241.800 313.506 230.026 C 313.564 223.551,313.475 218.114,313.306 217.946 C 313.138 217.777,313.090 223.075,313.200 229.720 M341.200 229.920 L 341.399 242.200 341.506 230.226 C 341.564 223.640,341.474 218.114,341.306 217.946 C 341.138 217.777,341.090 223.165,341.200 229.920 M233.776 229.800 C 233.776 235.960,233.832 238.424,233.899 235.276 C 233.967 232.127,233.967 227.087,233.899 224.076 C 233.831 221.064,233.776 223.640,233.776 229.800 M256.575 229.600 C 256.575 235.650,256.631 238.125,256.699 235.100 C 256.767 232.075,256.767 227.125,256.699 224.100 C 256.631 221.075,256.575 223.550,256.575 229.600 M318.575 229.600 C 318.575 235.650,318.631 238.125,318.699 235.100 C 318.767 232.075,318.767 227.125,318.699 224.100 C 318.631 221.075,318.575 223.550,318.575 229.600 M124.707 238.690 C 125.426 238.779,126.506 238.777,127.107 238.686 C 127.708 238.595,127.120 238.522,125.800 238.524 C 124.480 238.526,123.988 238.601,124.707 238.690 M256.400 241.533 C 256.400 241.875,253.437 242.025,245.300 242.093 L 234.200 242.187 245.173 242.300 C 255.437 242.406,257.562 242.228,256.673 241.340 C 256.523 241.190,256.400 241.277,256.400 241.533 M318.503 241.600 C 318.643 242.115,320.252 242.201,329.833 242.210 L 341.000 242.220 330.020 242.103 C 321.881 242.017,318.949 241.859,318.689 241.493 C 318.434 241.134,318.383 241.163,318.503 241.600 M262.746 242.107 C 262.915 242.275,267.991 242.365,274.027 242.306 L 285.000 242.199 273.719 242.000 C 267.515 241.890,262.577 241.938,262.746 242.107 M290.746 242.107 C 290.915 242.275,295.991 242.365,302.027 242.306 L 313.000 242.199 301.719 242.000 C 295.515 241.890,290.577 241.938,290.746 242.107 M156.778 248.700 L 155.400 250.200 156.900 248.822 C 158.296 247.538,158.584 247.200,158.278 247.200 C 158.212 247.200,157.537 247.875,156.778 248.700 M240.076 247.899 C 242.868 247.967,247.548 247.968,250.476 247.899 C 253.404 247.831,251.120 247.775,245.400 247.774 C 239.680 247.774,237.284 247.830,240.076 247.899 M267.900 247.899 C 270.815 247.967,275.585 247.967,278.500 247.899 C 281.415 247.831,279.030 247.775,273.200 247.775 C 267.370 247.775,264.985 247.831,267.900 247.899 M296.500 247.899 C 299.305 247.968,303.895 247.968,306.700 247.899 C 309.505 247.830,307.210 247.774,301.600 247.774 C 295.990 247.774,293.695 247.830,296.500 247.899 M256.577 260.200 C 256.577 266.580,256.632 269.134,256.699 265.876 C 256.767 262.617,256.766 257.397,256.699 254.276 C 256.631 251.154,256.576 253.820,256.577 260.200 M290.177 260.200 C 290.177 266.580,290.232 269.134,290.299 265.876 C 290.367 262.617,290.366 257.397,290.299 254.276 C 290.231 251.154,290.176 253.820,290.177 260.200 " stroke="none" fill="#9dcbed" fill-rule="evenodd"></path><path id="path3" d="M224.200 34.811 C 223.527 35.118,223.590 35.161,224.600 35.088 L 225.800 35.000 225.800 199.900 C 225.800 290.595,225.935 364.800,226.100 364.800 C 226.754 364.800,226.254 34.618,225.600 34.529 C 225.270 34.484,224.640 34.611,224.200 34.811 M220.400 35.600 C 219.608 35.854,219.567 35.920,220.200 35.920 C 220.640 35.920,221.450 35.776,222.000 35.600 C 222.792 35.346,222.833 35.280,222.200 35.280 C 221.760 35.280,220.950 35.424,220.400 35.600 M216.200 36.400 L 215.400 36.744 216.200 36.744 C 216.640 36.744,217.360 36.589,217.800 36.400 L 218.600 36.056 217.800 36.056 C 217.360 36.056,216.640 36.211,216.200 36.400 M212.400 37.200 L 211.400 37.520 212.400 37.554 C 212.950 37.573,213.670 37.413,214.000 37.200 C 214.764 36.706,213.942 36.706,212.400 37.200 M208.400 38.000 L 207.400 38.320 208.400 38.354 C 208.950 38.373,209.670 38.213,210.000 38.000 C 210.764 37.506,209.942 37.506,208.400 38.000 M204.400 38.800 L 203.400 39.120 204.400 39.154 C 204.950 39.173,205.670 39.013,206.000 38.800 C 206.764 38.306,205.942 38.306,204.400 38.800 M200.600 39.600 C 199.511 39.877,199.493 39.907,200.400 39.925 C 200.950 39.935,201.760 39.789,202.200 39.600 C 203.186 39.176,202.266 39.176,200.600 39.600 M196.600 40.400 C 195.511 40.677,195.493 40.707,196.400 40.725 C 196.950 40.735,197.760 40.589,198.200 40.400 C 199.186 39.976,198.266 39.976,196.600 40.400 M192.600 41.200 C 191.511 41.477,191.493 41.507,192.400 41.525 C 192.950 41.535,193.760 41.389,194.200 41.200 C 195.186 40.776,194.266 40.776,192.600 41.200 M188.600 42.000 C 187.511 42.277,187.493 42.307,188.400 42.325 C 188.950 42.335,189.760 42.189,190.200 42.000 C 191.186 41.576,190.266 41.576,188.600 42.000 M184.600 42.800 L 183.400 43.105 184.600 43.147 C 185.260 43.169,186.070 43.013,186.400 42.800 C 187.143 42.320,186.487 42.320,184.600 42.800 M179.122 43.811 C 179.006 43.928,178.121 44.193,177.155 44.400 C 175.400 44.778,175.400 44.778,177.000 44.592 C 179.962 44.246,182.022 43.700,180.567 43.646 C 179.888 43.621,179.238 43.695,179.122 43.811 M172.445 45.232 C 171.479 45.422,170.586 45.681,170.460 45.807 C 170.163 46.104,173.553 45.579,174.600 45.166 C 175.628 44.761,174.702 44.789,172.445 45.232 M167.000 46.410 C 166.466 46.647,166.798 46.686,168.000 46.527 C 168.990 46.396,169.875 46.224,169.967 46.144 C 170.314 45.843,167.764 46.072,167.000 46.410 M163.000 47.210 C 162.466 47.447,162.798 47.486,164.000 47.327 C 164.990 47.196,165.875 47.024,165.967 46.944 C 166.314 46.643,163.764 46.872,163.000 47.210 M155.000 48.800 L 154.200 49.144 155.000 49.132 C 155.440 49.126,156.250 48.976,156.800 48.800 L 157.800 48.480 156.800 48.468 C 156.250 48.462,155.440 48.611,155.000 48.800 M151.400 49.619 C 150.842 49.871,151.085 49.907,152.200 49.738 C 153.080 49.604,153.875 49.428,153.967 49.347 C 154.310 49.044,152.168 49.271,151.400 49.619 M147.200 50.400 C 146.408 50.654,146.367 50.720,147.000 50.720 C 147.440 50.720,148.250 50.576,148.800 50.400 C 149.592 50.146,149.633 50.080,149.000 50.080 C 148.560 50.080,147.750 50.224,147.200 50.400 M143.400 51.200 L 142.600 51.544 143.400 51.544 C 143.840 51.544,144.560 51.389,145.000 51.200 L 145.800 50.856 145.000 50.856 C 144.560 50.856,143.840 51.011,143.400 51.200 M139.400 52.000 L 138.600 52.344 139.400 52.344 C 139.840 52.344,140.560 52.189,141.000 52.000 L 141.800 51.656 141.000 51.656 C 140.560 51.656,139.840 51.811,139.400 52.000 M135.400 52.800 L 134.600 53.144 135.400 53.144 C 135.840 53.144,136.560 52.989,137.000 52.800 L 137.800 52.456 137.000 52.456 C 136.560 52.456,135.840 52.611,135.400 52.800 M131.600 53.600 C 130.796 53.857,130.757 53.923,131.400 53.932 C 131.840 53.938,132.560 53.789,133.000 53.600 C 134.019 53.162,132.968 53.162,131.600 53.600 M127.600 54.400 C 126.796 54.657,126.757 54.723,127.400 54.732 C 127.840 54.738,128.560 54.589,129.000 54.400 C 130.019 53.962,128.968 53.962,127.600 54.400 M123.600 55.200 L 122.600 55.520 123.600 55.554 C 124.150 55.573,124.870 55.413,125.200 55.200 C 125.964 54.706,125.142 54.706,123.600 55.200 M119.800 56.000 C 118.711 56.277,118.693 56.307,119.600 56.325 C 120.150 56.335,120.960 56.189,121.400 56.000 C 122.386 55.576,121.466 55.576,119.800 56.000 M115.800 56.800 C 114.711 57.077,114.693 57.107,115.600 57.125 C 116.150 57.135,116.960 56.989,117.400 56.800 C 118.386 56.376,117.466 56.376,115.800 56.800 M111.800 57.600 C 110.711 57.877,110.693 57.907,111.600 57.925 C 112.150 57.935,112.960 57.789,113.400 57.600 C 114.386 57.176,113.466 57.176,111.800 57.600 M107.600 58.400 C 106.233 58.688,106.228 58.695,107.400 58.719 C 108.060 58.733,108.960 58.589,109.400 58.400 C 110.362 57.987,109.564 57.987,107.600 58.400 M103.800 59.200 C 102.711 59.477,102.693 59.507,103.600 59.525 C 104.150 59.535,104.960 59.389,105.400 59.200 C 106.386 58.776,105.466 58.776,103.800 59.200 M100.000 60.000 C 98.633 60.288,98.628 60.295,99.800 60.319 C 100.460 60.333,101.360 60.189,101.800 60.000 C 102.762 59.587,101.964 59.587,100.000 60.000 M96.000 60.800 C 94.633 61.088,94.628 61.095,95.800 61.119 C 96.460 61.133,97.360 60.989,97.800 60.800 C 98.762 60.387,97.964 60.387,96.000 60.800 M92.000 61.600 C 90.633 61.888,90.628 61.895,91.800 61.919 C 92.460 61.933,93.360 61.789,93.800 61.600 C 94.762 61.187,93.964 61.187,92.000 61.600 M84.790 62.989 C 81.963 63.609,80.925 64.044,83.000 63.739 C 85.488 63.374,89.116 62.464,88.000 62.485 C 87.450 62.496,86.006 62.722,84.790 62.989 M74.200 65.200 L 73.400 65.544 74.200 65.532 C 74.640 65.526,75.450 65.376,76.000 65.200 L 77.000 64.880 76.000 64.868 C 75.450 64.862,74.640 65.011,74.200 65.200 M70.400 66.000 C 69.056 66.431,70.508 66.431,72.200 66.000 C 73.278 65.726,73.298 65.694,72.400 65.687 C 71.850 65.683,70.950 65.824,70.400 66.000 M66.400 66.800 C 65.056 67.231,66.508 67.231,68.200 66.800 C 69.278 66.526,69.298 66.494,68.400 66.487 C 67.850 66.483,66.950 66.624,66.400 66.800 M62.600 67.600 C 61.581 68.038,62.632 68.038,64.000 67.600 C 64.804 67.343,64.843 67.277,64.200 67.268 C 63.760 67.262,63.040 67.411,62.600 67.600 M58.600 68.400 L 57.800 68.744 58.600 68.744 C 59.040 68.744,59.760 68.589,60.200 68.400 L 61.000 68.056 60.200 68.056 C 59.760 68.056,59.040 68.211,58.600 68.400 M54.600 69.200 L 53.800 69.544 54.600 69.566 C 55.040 69.578,55.670 69.413,56.000 69.200 C 56.795 68.686,55.796 68.686,54.600 69.200 M50.800 70.000 C 49.996 70.257,49.957 70.323,50.600 70.332 C 51.040 70.338,51.760 70.189,52.200 70.000 C 53.219 69.562,52.168 69.562,50.800 70.000 M46.800 70.800 C 45.996 71.057,45.957 71.123,46.600 71.132 C 47.040 71.138,47.760 70.989,48.200 70.800 C 49.219 70.362,48.168 70.362,46.800 70.800 M42.800 71.600 L 41.800 71.920 42.800 71.954 C 43.350 71.973,44.070 71.813,44.400 71.600 C 45.164 71.106,44.342 71.106,42.800 71.600 M38.800 72.400 L 37.800 72.720 38.800 72.754 C 39.350 72.773,40.070 72.613,40.400 72.400 C 41.164 71.906,40.342 71.906,38.800 72.400 M35.384 73.227 C 34.960 73.913,35.339 73.980,36.177 73.367 C 36.826 72.893,36.846 72.800,36.300 72.800 C 35.941 72.800,35.529 72.992,35.384 73.227 M233.383 106.500 C 233.278 106.775,233.239 116.540,233.296 128.200 L 233.400 149.400 291.800 149.600 L 350.200 149.800 350.200 214.200 L 350.200 278.600 291.800 278.800 L 233.400 279.000 233.384 285.100 L 233.368 291.201 233.494 285.200 L 233.621 279.200 291.710 279.194 C 323.660 279.191,350.026 279.045,350.301 278.870 C 350.700 278.616,350.782 265.372,350.701 213.976 L 350.600 149.400 292.100 149.299 L 233.600 149.197 233.600 127.800 L 233.600 106.403 294.300 106.300 L 355.000 106.197 294.287 106.099 C 246.013 106.020,233.536 106.102,233.383 106.500 M362.585 111.500 C 363.202 112.435,363.777 113.200,363.863 113.200 C 364.196 113.200,362.818 110.913,362.158 110.371 C 361.766 110.048,361.951 110.539,362.585 111.500 M364.068 114.400 C 364.088 115.439,364.718 117.146,364.732 116.200 C 364.738 115.760,364.589 115.040,364.400 114.600 C 364.189 114.110,364.061 114.032,364.068 114.400 M122.076 139.940 C 121.568 140.083,124.324 140.200,128.200 140.200 C 132.076 140.200,134.832 140.083,134.324 139.940 C 133.816 139.797,131.060 139.680,128.200 139.680 C 125.340 139.680,122.584 139.797,122.076 139.940 M117.200 141.034 C 115.925 141.556,115.907 141.584,117.000 141.347 C 117.660 141.204,118.830 140.953,119.600 140.790 C 120.961 140.500,120.967 140.492,119.800 140.476 C 119.140 140.468,117.970 140.719,117.200 141.034 M136.800 140.790 C 137.570 140.953,138.740 141.204,139.400 141.347 C 140.493 141.584,140.475 141.556,139.200 141.034 C 138.430 140.719,137.260 140.468,136.600 140.476 C 135.433 140.492,135.439 140.500,136.800 140.790 M141.600 142.051 C 142.150 142.287,143.207 142.740,143.950 143.058 C 144.692 143.375,145.386 143.547,145.493 143.441 C 145.733 143.201,143.418 142.220,141.800 141.876 C 140.660 141.634,140.650 141.643,141.600 142.051 M108.107 144.547 C 107.176 145.016,106.411 145.538,106.407 145.707 C 106.403 145.875,107.300 145.557,108.400 145.000 C 109.500 144.443,110.400 143.900,110.400 143.793 C 110.400 143.479,109.898 143.644,108.107 144.547 M147.600 144.556 C 147.600 144.679,148.140 145.059,148.800 145.400 C 149.460 145.741,150.000 145.857,150.000 145.657 C 150.000 145.457,149.685 145.182,149.300 145.046 C 148.915 144.911,148.375 144.695,148.100 144.566 C 147.825 144.438,147.600 144.434,147.600 144.556 M103.429 147.408 C 102.344 148.158,101.174 149.076,100.829 149.448 C 100.211 150.112,101.470 149.325,104.560 147.116 C 105.418 146.502,105.958 146.010,105.760 146.022 C 105.562 146.034,104.513 146.658,103.429 147.408 M150.953 146.524 C 151.368 146.786,152.583 147.679,153.653 148.509 C 154.724 149.339,155.595 149.879,155.588 149.709 C 155.574 149.322,151.017 145.991,150.546 146.024 C 150.356 146.036,150.539 146.261,150.953 146.524 M158.615 152.815 C 162.416 156.845,166.400 162.355,166.400 163.582 C 166.400 163.786,166.578 164.063,166.795 164.197 C 169.594 165.927,160.436 153.489,156.794 150.615 C 156.247 150.183,157.067 151.173,158.615 152.815 M96.128 153.715 C 93.340 156.618,89.211 162.000,89.770 162.000 C 89.880 162.000,90.721 160.894,91.639 159.543 C 92.556 158.192,94.768 155.582,96.554 153.743 C 98.340 151.904,99.690 150.400,99.555 150.400 C 99.421 150.400,97.878 151.892,96.128 153.715 M262.673 159.460 C 262.523 159.611,262.400 165.103,262.400 171.667 L 262.400 183.600 273.806 183.600 L 285.212 183.600 285.106 171.500 L 285.000 159.400 273.973 159.294 C 267.908 159.235,262.823 159.310,262.673 159.460 M290.581 159.705 C 290.475 159.983,290.435 165.428,290.494 171.805 L 290.600 183.400 301.900 183.506 L 313.200 183.612 313.106 171.706 L 313.013 159.800 312.900 171.500 L 312.788 183.200 301.794 183.200 L 290.800 183.200 290.800 171.406 L 290.800 159.612 302.100 159.500 L 313.400 159.387 302.087 159.294 C 293.279 159.221,290.732 159.312,290.581 159.705 M318.581 159.705 C 318.475 159.983,318.435 165.428,318.494 171.805 L 318.600 183.400 329.900 183.506 C 336.115 183.565,341.200 183.475,341.200 183.306 C 341.200 183.138,336.160 183.050,330.000 183.112 L 318.800 183.224 318.800 171.418 L 318.800 159.612 330.100 159.500 L 341.400 159.387 330.087 159.294 C 321.279 159.221,318.732 159.312,318.581 159.705 M284.800 171.400 L 284.800 183.200 273.800 183.200 L 262.800 183.200 262.800 171.400 L 262.800 159.600 273.800 159.600 L 284.800 159.600 284.800 171.400 M88.423 163.850 C 87.953 164.648,87.633 165.366,87.713 165.446 C 87.792 165.526,88.261 164.873,88.754 163.996 C 89.875 162.002,89.588 161.877,88.423 163.850 M121.824 162.850 C 120.957 163.053,120.147 163.326,120.024 163.456 C 119.901 163.587,120.430 163.553,121.200 163.382 C 121.970 163.210,123.770 162.945,125.200 162.792 L 127.800 162.514 125.600 162.497 C 124.390 162.488,122.691 162.647,121.824 162.850 M129.000 163.200 C 130.692 163.631,132.144 163.631,130.800 163.200 C 130.250 163.024,129.350 162.883,128.800 162.887 C 127.902 162.894,127.922 162.926,129.000 163.200 M118.200 164.214 C 117.195 164.698,117.163 164.753,118.000 164.551 C 118.550 164.419,119.171 164.150,119.380 163.955 C 119.898 163.471,119.614 163.533,118.200 164.214 M132.000 163.831 C 132.000 164.101,134.078 164.856,134.276 164.657 C 134.367 164.567,133.892 164.301,133.220 164.067 C 132.549 163.833,132.000 163.727,132.000 163.831 M114.956 165.839 C 112.986 167.154,110.682 169.344,109.104 171.400 C 108.429 172.280,108.978 171.808,110.324 170.351 C 111.671 168.893,113.679 167.120,114.786 166.409 C 116.578 165.259,117.111 164.800,116.656 164.800 C 116.577 164.800,115.812 165.268,114.956 165.839 M134.833 164.963 C 135.445 165.560,139.199 167.893,139.193 167.673 C 139.185 167.373,135.374 164.800,134.938 164.800 C 134.789 164.800,134.742 164.873,134.833 164.963 M167.246 165.000 C 167.269 165.699,168.740 168.627,168.754 168.000 C 168.761 167.670,168.422 166.770,168.000 166.000 C 167.578 165.230,167.239 164.780,167.246 165.000 M86.180 168.040 C 85.611 169.162,85.213 170.147,85.295 170.229 C 85.377 170.311,85.927 169.393,86.518 168.189 C 87.108 166.985,87.506 166.000,87.402 166.000 C 87.298 166.000,86.748 166.918,86.180 168.040 M169.050 169.600 C 169.425 171.105,170.334 173.084,170.338 172.400 C 170.339 172.070,169.994 171.080,169.571 170.200 C 169.148 169.320,168.914 169.050,169.050 169.600 M141.200 169.720 C 141.200 170.104,143.245 173.200,143.499 173.200 C 143.678 173.200,143.041 172.119,141.739 170.211 C 141.442 169.777,141.200 169.556,141.200 169.720 M83.029 175.829 C 82.881 176.415,82.838 176.972,82.932 177.066 C 83.027 177.160,83.224 176.758,83.371 176.171 C 83.519 175.585,83.562 175.028,83.468 174.934 C 83.373 174.840,83.176 175.242,83.029 175.829 M105.440 177.240 C 105.045 177.908,104.811 178.544,104.919 178.653 C 105.028 178.761,105.406 178.269,105.760 177.560 C 106.593 175.890,106.370 175.666,105.440 177.240 M171.234 176.400 C 171.246 176.730,171.411 177.360,171.600 177.800 L 171.944 178.600 171.966 177.800 C 171.978 177.360,171.813 176.730,171.600 176.400 C 171.255 175.867,171.215 175.867,171.234 176.400 M103.846 181.046 C 103.492 182.085,103.266 182.999,103.343 183.077 C 103.421 183.154,103.800 182.393,104.185 181.385 C 104.570 180.376,104.796 179.463,104.687 179.354 C 104.579 179.245,104.200 180.007,103.846 181.046 M172.034 179.600 C 172.046 179.930,172.211 180.560,172.400 181.000 L 172.744 181.800 172.766 181.000 C 172.778 180.560,172.613 179.930,172.400 179.600 C 172.055 179.067,172.015 179.067,172.034 179.600 M81.400 181.600 C 81.248 182.291,81.207 182.941,81.309 183.042 C 81.411 183.144,81.609 182.653,81.750 181.950 C 82.083 180.283,81.760 179.960,81.400 181.600 M173.072 184.200 C 173.199 185.300,173.369 186.275,173.451 186.367 C 173.732 186.682,173.520 184.199,173.180 183.200 C 172.951 182.526,172.916 182.851,173.072 184.200 M80.622 185.422 C 80.472 186.225,80.428 186.962,80.526 187.060 C 80.624 187.157,80.827 186.581,80.978 185.778 C 81.128 184.975,81.172 184.238,81.074 184.140 C 80.976 184.043,80.773 184.619,80.622 185.422 M147.656 184.400 C 147.656 184.730,147.811 185.360,148.000 185.800 C 148.217 186.304,148.344 186.378,148.344 186.000 C 148.344 185.670,148.189 185.040,148.000 184.600 C 147.783 184.096,147.656 184.022,147.656 184.400 M102.673 184.953 C 102.523 185.345,102.411 185.966,102.425 186.333 C 102.442 186.775,102.581 186.674,102.837 186.034 C 103.049 185.503,103.161 184.882,103.085 184.654 C 103.009 184.427,102.824 184.561,102.673 184.953 M101.800 189.200 C 101.645 190.328,101.608 191.341,101.718 191.451 C 101.828 191.561,102.045 190.728,102.200 189.600 C 102.355 188.472,102.392 187.459,102.282 187.349 C 102.172 187.239,101.955 188.072,101.800 189.200 M148.468 188.200 C 148.462 188.860,148.611 189.760,148.800 190.200 C 149.270 191.294,149.270 189.467,148.800 188.000 C 148.488 187.025,148.479 187.030,148.468 188.200 M173.875 189.808 C 174.004 191.123,174.176 192.275,174.255 192.367 C 174.589 192.751,174.356 188.549,174.013 188.008 C 173.770 187.623,173.721 188.254,173.875 189.808 M79.856 189.684 C 79.721 190.188,79.631 191.410,79.656 192.400 C 79.697 194.024,79.734 193.947,80.035 191.618 C 80.378 188.971,80.293 188.054,79.856 189.684 M234.210 189.583 C 233.902 190.083,233.903 213.119,234.211 213.619 C 234.351 213.845,238.790 214.000,245.144 214.000 C 255.798 214.000,256.812 213.880,256.794 212.620 C 256.791 212.389,256.639 212.434,256.457 212.721 C 256.200 213.127,253.767 213.241,245.364 213.241 L 234.600 213.241 234.600 201.521 L 234.600 189.800 245.200 189.714 C 254.663 189.637,255.854 189.699,256.300 190.290 C 256.575 190.655,256.800 190.775,256.800 190.556 C 256.800 189.322,255.756 189.200,245.144 189.200 C 238.756 189.200,234.352 189.354,234.210 189.583 M262.894 189.533 C 262.500 189.783,262.411 192.515,262.494 201.827 L 262.600 213.800 273.767 213.800 C 282.496 213.800,284.956 213.689,285.037 213.290 C 285.094 213.010,285.064 212.920,284.970 213.090 C 284.877 213.261,279.895 213.367,273.900 213.326 L 263.000 213.253 263.000 201.526 L 263.000 189.800 274.062 189.800 C 280.146 189.800,285.040 189.665,284.938 189.500 C 284.688 189.095,263.534 189.127,262.894 189.533 M290.880 189.680 C 290.372 190.188,290.153 212.091,290.643 213.367 C 290.928 214.110,312.537 214.348,312.992 213.614 C 313.143 213.369,309.167 213.234,302.115 213.247 L 291.000 213.266 291.000 201.533 L 291.000 189.800 302.063 189.800 C 308.147 189.800,312.917 189.668,312.663 189.506 C 311.832 188.979,291.418 189.142,290.880 189.680 M318.880 189.680 C 318.616 189.944,318.400 190.338,318.400 190.556 C 318.400 190.775,318.633 190.635,318.917 190.246 C 319.393 189.595,320.284 189.550,330.280 189.670 C 336.245 189.741,340.917 189.668,340.663 189.506 C 339.832 188.979,319.418 189.142,318.880 189.680 M149.270 193.800 C 149.257 194.460,149.395 195.720,149.577 196.600 L 149.908 198.200 149.907 196.600 C 149.906 195.720,149.768 194.460,149.600 193.800 L 149.295 192.600 149.270 193.800 M101.057 194.700 C 100.743 196.596,100.811 206.609,101.147 208.177 C 101.286 208.825,101.400 205.720,101.400 201.277 C 101.400 196.835,101.379 193.200,101.352 193.200 C 101.326 193.200,101.193 193.875,101.057 194.700 M174.540 196.400 C 174.540 198.270,174.609 199.035,174.693 198.100 C 174.777 197.165,174.777 195.635,174.693 194.700 C 174.609 193.765,174.540 194.530,174.540 196.400 M79.359 200.800 C 79.359 203.990,79.421 205.295,79.497 203.700 C 79.573 202.105,79.573 199.495,79.497 197.900 C 79.421 196.305,79.359 197.610,79.359 200.800 M149.415 204.724 C 149.250 206.332,149.208 207.741,149.322 207.855 C 149.600 208.133,150.138 203.006,149.902 202.330 C 149.800 202.039,149.581 203.116,149.415 204.724 M174.540 205.200 C 174.540 207.070,174.609 207.835,174.693 206.900 C 174.777 205.965,174.777 204.435,174.693 203.500 C 174.609 202.565,174.540 203.330,174.540 205.200 M79.640 209.433 C 79.662 210.515,79.829 211.850,80.011 212.400 C 80.212 213.009,80.253 212.304,80.116 210.600 C 79.850 207.295,79.583 206.642,79.640 209.433 M174.070 210.250 C 174.031 210.938,173.905 212.107,173.789 212.850 C 173.596 214.086,173.615 214.117,174.008 213.214 C 174.244 212.672,174.371 211.502,174.289 210.614 C 174.168 209.302,174.127 209.233,174.070 210.250 M148.582 211.382 C 148.429 212.402,148.394 213.327,148.504 213.437 C 148.614 213.547,148.829 212.802,148.982 211.782 C 149.135 210.761,149.170 209.837,149.060 209.727 C 148.950 209.617,148.735 210.361,148.582 211.382 M101.695 211.200 C 101.695 211.750,101.832 212.740,102.000 213.400 C 102.272 214.470,102.305 214.492,102.305 213.600 C 102.305 213.050,102.168 212.060,102.000 211.400 C 101.728 210.330,101.695 210.308,101.695 211.200 M318.800 213.621 C 318.800 214.131,340.673 214.130,340.988 213.619 C 341.136 213.381,337.017 213.238,330.012 213.239 C 323.210 213.240,318.800 213.390,318.800 213.621 M80.480 215.200 C 80.480 215.750,80.624 216.650,80.800 217.200 L 81.120 218.200 81.120 217.200 C 81.120 216.650,80.976 215.750,80.800 215.200 L 80.480 214.200 80.480 215.200 M147.850 215.650 C 147.517 217.317,147.840 217.640,148.200 216.000 C 148.352 215.309,148.393 214.659,148.291 214.558 C 148.189 214.456,147.991 214.947,147.850 215.650 M102.434 215.400 C 102.422 215.840,102.587 216.470,102.800 216.800 C 103.314 217.595,103.314 216.596,102.800 215.400 L 102.456 214.600 102.434 215.400 M173.259 215.600 C 173.220 216.150,173.089 217.050,172.967 217.600 C 172.776 218.462,172.808 218.502,173.197 217.891 C 173.446 217.502,173.577 216.602,173.489 215.891 C 173.364 214.887,173.313 214.822,173.259 215.600 M234.211 217.983 C 234.039 218.261,233.886 234.906,233.994 241.600 C 233.997 241.820,234.135 242.000,234.300 242.000 C 234.465 242.000,234.550 236.600,234.489 230.000 L 234.377 218.000 245.109 218.000 C 253.128 218.000,255.982 218.126,256.401 218.500 C 256.878 218.925,256.882 218.896,256.432 218.300 C 255.827 217.501,234.695 217.199,234.211 217.983 M262.581 218.105 C 262.104 219.349,262.602 241.734,263.110 241.837 C 263.390 241.894,263.435 241.849,263.210 241.737 C 262.944 241.605,262.800 237.400,262.800 229.754 L 262.800 217.976 273.962 218.088 C 280.101 218.150,285.041 218.065,284.939 217.900 C 284.592 217.340,262.798 217.540,262.581 218.105 M294.400 217.881 C 303.835 218.165,313.109 218.174,312.939 217.900 C 312.837 217.735,307.768 217.638,301.676 217.684 C 295.584 217.730,292.310 217.819,294.400 217.881 M322.400 217.881 C 331.835 218.165,341.109 218.174,340.939 217.900 C 340.837 217.735,335.768 217.638,329.676 217.684 C 323.584 217.730,320.310 217.819,322.400 217.881 M103.212 218.400 C 103.212 218.730,103.387 219.270,103.600 219.600 C 103.945 220.133,103.988 220.133,103.988 219.600 C 103.988 219.270,103.813 218.730,103.600 218.400 C 103.255 217.867,103.212 217.867,103.212 218.400 M147.029 219.029 C 146.881 219.615,146.838 220.172,146.932 220.266 C 147.027 220.360,147.224 219.958,147.371 219.371 C 147.519 218.785,147.562 218.228,147.468 218.134 C 147.373 218.040,147.176 218.442,147.029 219.029 M290.485 229.876 C 290.438 236.298,290.535 241.636,290.700 241.739 C 290.865 241.841,290.954 238.477,290.898 234.262 C 290.702 219.666,290.570 218.254,290.485 229.876 M81.206 219.433 C 81.209 219.855,81.395 220.470,81.618 220.800 C 81.915 221.238,81.952 221.076,81.756 220.200 C 81.427 218.729,81.198 218.410,81.206 219.433 M82.000 222.638 C 82.000 223.290,83.299 227.234,83.461 227.073 C 83.670 226.863,82.439 222.400,82.172 222.400 C 82.077 222.400,82.000 222.507,82.000 222.638 M171.646 222.667 C 171.621 222.924,171.484 223.464,171.341 223.867 C 171.140 224.436,171.194 224.497,171.579 224.142 C 171.852 223.891,171.989 223.351,171.884 222.942 C 171.779 222.534,171.672 222.410,171.646 222.667 M107.015 227.100 C 107.404 227.705,107.956 228.542,108.241 228.961 C 109.126 230.257,112.416 233.558,113.740 234.477 C 114.433 234.958,113.715 234.148,112.144 232.678 C 110.572 231.208,108.709 229.104,108.002 228.003 C 107.295 226.901,106.625 226.000,106.512 226.000 C 106.400 226.000,106.626 226.495,107.015 227.100 M142.777 228.700 C 142.020 229.745,141.331 230.780,141.246 231.000 C 141.034 231.551,143.586 228.368,144.052 227.500 C 144.724 226.250,144.185 226.757,142.777 228.700 M169.501 228.886 C 169.116 229.793,168.881 230.614,168.977 230.711 C 169.202 230.936,170.455 227.960,170.309 227.547 C 170.249 227.376,169.885 227.979,169.501 228.886 M85.228 232.092 C 85.182 232.565,86.486 235.648,86.658 235.475 C 86.745 235.388,86.466 234.525,86.037 233.558 C 85.608 232.591,85.244 231.931,85.228 232.092 M134.045 236.059 C 132.420 236.907,131.300 237.600,131.557 237.600 C 132.214 237.600,136.689 235.303,136.994 234.809 C 137.133 234.584,137.192 234.427,137.124 234.459 C 137.056 234.492,135.670 235.212,134.045 236.059 M116.800 236.214 C 116.800 236.493,119.706 237.631,120.091 237.503 C 120.282 237.439,119.620 237.084,118.619 236.713 C 117.619 236.342,116.800 236.117,116.800 236.214 M164.827 238.553 C 164.149 239.737,163.326 240.929,162.997 241.202 C 162.669 241.475,162.400 241.870,162.400 242.080 C 162.400 242.290,162.821 241.953,163.336 241.331 C 164.424 240.017,166.574 236.400,166.267 236.400 C 166.153 236.400,165.504 237.369,164.827 238.553 M87.960 238.200 C 88.634 239.505,89.188 240.228,89.185 239.800 C 89.183 239.580,88.814 238.950,88.364 238.400 C 87.821 237.736,87.685 237.669,87.960 238.200 M121.600 238.000 C 122.150 238.176,123.050 238.317,123.600 238.313 C 124.498 238.306,124.478 238.274,123.400 238.000 C 121.708 237.569,120.256 237.569,121.600 238.000 M89.788 241.400 C 91.791 244.668,96.722 249.800,100.000 252.028 C 101.654 253.152,101.687 253.160,100.411 252.126 C 97.523 249.785,93.179 245.444,91.542 243.264 C 89.467 240.500,88.808 239.799,89.788 241.400 M240.523 241.899 C 243.341 241.968,247.841 241.968,250.523 241.899 C 253.205 241.830,250.900 241.773,245.400 241.773 C 239.900 241.774,237.705 241.830,240.523 241.899 M269.100 241.899 C 271.795 241.968,276.205 241.968,278.900 241.899 C 281.595 241.830,279.390 241.773,274.000 241.773 C 268.610 241.773,266.405 241.830,269.100 241.899 M296.923 241.899 C 299.741 241.968,304.241 241.968,306.923 241.899 C 309.605 241.830,307.300 241.773,301.800 241.773 C 296.300 241.774,294.105 241.830,296.923 241.899 M324.923 241.899 C 327.741 241.968,332.241 241.968,334.923 241.899 C 337.605 241.830,335.300 241.773,329.800 241.773 C 324.300 241.774,322.105 241.830,324.923 241.899 M159.563 245.844 C 158.161 247.518,156.579 249.231,156.046 249.650 C 155.514 250.068,155.165 250.498,155.272 250.605 C 155.378 250.712,156.357 249.854,157.445 248.700 C 159.706 246.301,162.590 242.800,162.304 242.800 C 162.198 242.800,160.965 244.170,159.563 245.844 M234.300 248.032 C 233.414 248.548,233.207 271.047,234.080 271.920 C 234.621 272.461,255.808 272.634,256.138 272.100 C 256.240 271.935,251.385 271.800,245.349 271.800 L 234.375 271.800 234.351 260.285 C 234.333 251.815,234.455 248.615,234.813 248.185 C 235.378 247.503,235.265 247.470,234.300 248.032 M290.581 248.105 C 290.475 248.382,290.435 253.917,290.494 260.405 L 290.600 272.200 301.351 272.307 C 308.948 272.382,312.263 272.280,312.651 271.958 C 313.485 271.266,313.457 248.711,312.621 248.017 C 312.187 247.657,311.861 247.650,311.321 247.988 C 310.670 248.394,310.683 248.416,311.453 248.207 C 312.751 247.855,312.798 248.315,312.695 260.520 L 312.600 271.800 301.700 271.906 L 290.800 272.013 290.800 259.964 C 290.800 249.238,290.868 247.941,291.421 248.153 C 291.777 248.289,291.937 248.222,291.797 247.995 C 291.456 247.444,290.813 247.502,290.581 248.105 M262.591 260.100 L 262.600 272.200 273.000 272.312 C 278.720 272.374,283.805 272.326,284.300 272.205 L 285.200 271.985 285.200 259.992 C 285.200 253.397,285.065 248.000,284.900 248.000 C 284.735 248.000,284.600 253.355,284.600 259.900 L 284.600 271.800 273.706 271.906 L 262.812 272.013 262.697 260.006 L 262.582 248.000 262.591 260.100 M256.176 260.200 C 256.176 266.360,256.232 268.824,256.299 265.676 C 256.367 262.527,256.367 257.487,256.299 254.476 C 256.231 251.464,256.176 254.040,256.176 260.200 M102.000 253.314 C 102.000 253.555,105.106 255.600,105.471 255.600 C 105.630 255.600,105.589 255.449,105.380 255.264 C 104.752 254.708,102.000 253.121,102.000 253.314 M149.594 254.818 C 149.047 255.239,148.780 255.580,149.000 255.578 C 149.529 255.573,150.991 254.458,150.765 254.231 C 150.668 254.134,150.141 254.398,149.594 254.818 M146.000 256.796 C 144.790 257.433,142.810 258.275,141.600 258.668 C 140.261 259.102,139.690 259.438,140.142 259.528 C 140.551 259.609,141.082 259.478,141.322 259.238 C 141.563 258.997,142.017 258.800,142.331 258.800 C 142.945 258.800,147.553 256.566,148.180 255.965 C 148.774 255.395,148.367 255.550,146.000 256.796 M107.600 256.589 C 107.600 256.906,110.500 258.033,110.728 257.805 C 110.841 257.692,110.835 257.600,110.716 257.600 C 110.596 257.600,109.846 257.328,109.049 256.995 C 108.252 256.662,107.600 256.479,107.600 256.589 M113.800 259.200 C 113.936 259.420,114.442 259.587,114.924 259.572 C 115.769 259.545,115.771 259.531,115.000 259.200 C 113.899 258.727,113.508 258.727,113.800 259.200 M116.600 259.981 C 117.368 260.329,119.510 260.556,119.167 260.253 C 119.075 260.172,118.280 259.996,117.400 259.862 C 116.285 259.693,116.042 259.729,116.600 259.981 M137.000 260.000 L 135.800 260.305 137.000 260.347 C 137.660 260.369,138.470 260.213,138.800 260.000 C 139.543 259.520,138.887 259.520,137.000 260.000 M120.800 260.816 C 121.799 261.120,127.082 261.330,126.767 261.054 C 126.675 260.973,125.070 260.818,123.200 260.710 C 121.330 260.601,120.250 260.649,120.800 260.816 M131.400 260.800 L 128.600 261.059 131.200 261.101 C 132.630 261.125,134.160 260.989,134.600 260.800 C 135.475 260.424,135.470 260.424,131.400 260.800 M364.200 282.000 C 364.048 282.691,364.014 283.347,364.124 283.457 C 364.234 283.567,364.448 283.091,364.600 282.400 C 364.752 281.709,364.786 281.053,364.676 280.943 C 364.566 280.833,364.352 281.309,364.200 282.000 M361.000 287.665 C 359.635 289.067,359.399 289.433,360.257 288.817 C 361.294 288.072,363.501 285.589,363.112 285.605 C 363.050 285.607,362.100 286.534,361.000 287.665 M263.669 291.500 C 280.096 291.558,307.096 291.558,323.669 291.500 C 340.241 291.442,326.800 291.395,293.800 291.395 C 260.800 291.395,247.241 291.442,263.669 291.500 M36.800 331.600 C 37.350 331.776,38.160 331.926,38.600 331.932 L 39.400 331.944 38.600 331.600 C 38.160 331.411,37.350 331.262,36.800 331.268 L 35.800 331.280 36.800 331.600 M41.200 332.400 C 41.750 332.576,42.560 332.726,43.000 332.732 L 43.800 332.744 43.000 332.400 C 42.560 332.211,41.750 332.062,41.200 332.068 L 40.200 332.080 41.200 332.400 M45.800 333.200 C 47.492 333.631,48.944 333.631,47.600 333.200 C 47.050 333.024,46.150 332.883,45.600 332.887 C 44.702 332.894,44.722 332.926,45.800 333.200 M50.400 334.000 C 50.950 334.176,51.760 334.326,52.200 334.332 L 53.000 334.344 52.200 334.000 C 51.760 333.811,50.950 333.662,50.400 333.668 L 49.400 333.680 50.400 334.000 M54.800 334.800 C 55.350 334.976,56.250 335.117,56.800 335.113 C 57.698 335.106,57.678 335.074,56.600 334.800 C 54.908 334.369,53.456 334.369,54.800 334.800 M59.400 335.600 C 60.060 335.768,61.050 335.905,61.600 335.905 C 62.492 335.905,62.470 335.872,61.400 335.600 C 60.740 335.432,59.750 335.295,59.200 335.295 C 58.308 335.295,58.330 335.328,59.400 335.600 M64.000 336.380 C 64.999 336.720,67.482 336.932,67.167 336.651 C 67.075 336.569,66.100 336.399,65.000 336.272 C 63.651 336.116,63.326 336.151,64.000 336.380 M68.400 337.200 C 68.950 337.376,69.850 337.517,70.400 337.513 C 71.298 337.506,71.278 337.474,70.200 337.200 C 68.508 336.769,67.056 336.769,68.400 337.200 M73.000 337.997 C 73.764 338.328,76.714 338.555,76.367 338.256 C 76.275 338.177,75.300 338.009,74.200 337.882 C 72.913 337.733,72.485 337.774,73.000 337.997 M77.600 338.780 C 78.599 339.120,81.082 339.332,80.767 339.051 C 80.675 338.969,79.700 338.799,78.600 338.672 C 77.251 338.516,76.926 338.551,77.600 338.780 M82.000 339.587 C 82.991 339.917,85.887 340.135,85.567 339.854 C 85.475 339.774,84.410 339.606,83.200 339.481 C 81.780 339.334,81.354 339.371,82.000 339.587 M88.100 340.676 C 88.485 340.776,89.115 340.776,89.500 340.676 C 89.885 340.575,89.570 340.493,88.800 340.493 C 88.030 340.493,87.715 340.575,88.100 340.676 M92.033 341.344 C 92.125 341.423,93.100 341.591,94.200 341.718 C 95.487 341.867,95.915 341.826,95.400 341.603 C 94.636 341.272,91.686 341.045,92.033 341.344 M96.833 342.149 C 96.925 342.231,97.900 342.407,99.000 342.541 C 100.346 342.705,100.739 342.665,100.200 342.420 C 99.439 342.074,96.483 341.836,96.833 342.149 M101.233 342.944 C 101.325 343.023,102.300 343.191,103.400 343.318 C 104.687 343.467,105.115 343.426,104.600 343.203 C 103.836 342.872,100.886 342.645,101.233 342.944 M106.433 343.747 C 106.525 343.828,107.320 344.014,108.200 344.162 C 109.346 344.354,109.630 344.314,109.200 344.021 C 108.660 343.653,106.032 343.393,106.433 343.747 M110.833 344.547 C 110.925 344.628,111.720 344.814,112.600 344.962 C 113.746 345.154,114.030 345.114,113.600 344.821 C 113.060 344.453,110.432 344.193,110.833 344.547 M116.200 345.600 C 116.860 345.768,117.760 345.914,118.200 345.925 L 119.000 345.944 118.200 345.600 C 117.760 345.411,116.860 345.265,116.200 345.275 L 115.000 345.295 116.200 345.600 M120.033 346.147 C 120.125 346.228,120.920 346.414,121.800 346.562 C 122.946 346.754,123.230 346.714,122.800 346.421 C 122.260 346.053,119.632 345.793,120.033 346.147 M124.433 346.947 C 124.525 347.028,125.320 347.214,126.200 347.362 C 127.346 347.554,127.630 347.514,127.200 347.221 C 126.660 346.853,124.032 346.593,124.433 346.947 M129.800 348.000 C 130.460 348.168,131.360 348.314,131.800 348.325 L 132.600 348.344 131.800 348.000 C 131.360 347.811,130.460 347.665,129.800 347.675 L 128.600 347.695 129.800 348.000 M133.633 348.547 C 133.725 348.628,134.520 348.804,135.400 348.938 C 136.515 349.107,136.758 349.071,136.200 348.819 C 135.432 348.471,133.290 348.244,133.633 348.547 M138.800 349.600 C 139.350 349.776,140.160 349.926,140.600 349.932 L 141.400 349.944 140.600 349.600 C 140.160 349.411,139.350 349.262,138.800 349.268 L 137.800 349.280 138.800 349.600 M143.600 350.400 C 144.150 350.576,145.050 350.720,145.600 350.720 L 146.600 350.720 145.600 350.400 C 145.050 350.224,144.150 350.080,143.600 350.080 L 142.600 350.080 143.600 350.400 M148.000 351.200 C 148.550 351.376,149.450 351.520,150.000 351.520 L 151.000 351.520 150.000 351.200 C 149.450 351.024,148.550 350.880,148.000 350.880 L 147.000 350.880 148.000 351.200 M152.800 351.980 C 153.799 352.320,156.282 352.532,155.967 352.251 C 155.875 352.169,154.900 351.999,153.800 351.872 C 152.451 351.716,152.126 351.751,152.800 351.980 M157.200 352.800 C 157.750 352.976,158.740 353.117,159.400 353.113 L 160.600 353.105 159.400 352.800 C 158.740 352.632,157.750 352.491,157.200 352.487 L 156.200 352.480 157.200 352.800 M161.600 353.580 C 162.599 353.920,165.082 354.132,164.767 353.851 C 164.675 353.769,163.700 353.599,162.600 353.472 C 161.251 353.316,160.926 353.351,161.600 353.580 M166.800 354.384 C 169.749 355.101,172.495 355.599,173.331 355.568 C 174.416 355.529,170.098 354.587,167.400 354.275 C 165.793 354.089,165.675 354.110,166.800 354.384 M175.200 355.987 C 176.191 356.317,179.087 356.535,178.767 356.254 C 178.675 356.174,177.610 356.006,176.400 355.881 C 174.980 355.734,174.554 355.771,175.200 355.987 M182.200 357.195 C 186.945 358.069,189.321 358.412,189.488 358.246 C 189.590 358.144,188.802 357.941,187.737 357.795 C 186.671 357.649,185.170 357.366,184.400 357.167 C 183.630 356.968,182.460 356.826,181.800 356.852 C 180.752 356.894,180.803 356.938,182.200 357.195 M190.033 358.544 C 190.125 358.623,191.100 358.791,192.200 358.918 C 193.487 359.067,193.915 359.026,193.400 358.803 C 192.636 358.472,189.686 358.245,190.033 358.544 M194.433 359.344 C 194.525 359.423,195.500 359.591,196.600 359.718 C 197.887 359.867,198.315 359.826,197.800 359.603 C 197.036 359.272,194.086 359.045,194.433 359.344 M199.233 360.144 C 199.325 360.224,200.210 360.396,201.200 360.527 C 202.402 360.686,202.734 360.647,202.200 360.410 C 201.436 360.072,198.886 359.843,199.233 360.144 M204.033 360.944 C 204.125 361.024,205.010 361.196,206.000 361.327 C 207.202 361.486,207.534 361.447,207.000 361.210 C 206.236 360.872,203.686 360.643,204.033 360.944 M208.433 361.744 C 208.525 361.824,209.410 361.996,210.400 362.127 C 211.602 362.286,211.934 362.247,211.400 362.010 C 210.636 361.672,208.086 361.443,208.433 361.744 M214.400 362.800 C 214.950 362.976,215.760 363.126,216.200 363.132 L 217.000 363.144 216.200 362.800 C 215.760 362.611,214.950 362.462,214.400 362.468 L 213.400 362.480 214.400 362.800 M218.800 363.600 C 219.350 363.776,220.160 363.926,220.600 363.932 L 221.400 363.944 220.600 363.600 C 220.160 363.411,219.350 363.262,218.800 363.268 L 217.800 363.280 218.800 363.600 M222.433 364.143 C 222.525 364.221,223.230 364.401,224.000 364.542 C 224.985 364.723,225.222 364.682,224.800 364.406 C 224.258 364.050,222.037 363.803,222.433 364.143 " stroke="none" fill="#7cb4e4" fill-rule="evenodd"></path><path id="path4" d="M225.200 34.277 C 225.750 34.389,226.349 34.688,226.530 34.940 C 226.751 35.248,226.807 35.201,226.700 34.800 C 226.609 34.462,226.029 34.172,225.369 34.137 C 224.362 34.082,224.339 34.101,225.200 34.277 M216.000 36.006 C 215.578 36.282,215.815 36.323,216.800 36.142 C 218.525 35.825,218.851 35.598,217.567 35.606 C 217.035 35.609,216.330 35.789,216.000 36.006 M212.000 36.806 C 211.578 37.082,211.815 37.123,212.800 36.942 C 214.525 36.625,214.851 36.398,213.567 36.406 C 213.035 36.409,212.330 36.589,212.000 36.806 M204.190 38.416 C 204.021 38.689,204.323 38.738,205.066 38.560 C 206.599 38.192,206.744 38.000,205.490 38.000 C 204.917 38.000,204.332 38.187,204.190 38.416 M200.400 39.218 C 199.962 39.515,200.124 39.552,201.000 39.356 C 202.471 39.027,202.790 38.798,201.767 38.806 C 201.345 38.809,200.730 38.995,200.400 39.218 M196.400 40.018 C 195.962 40.315,196.124 40.352,197.000 40.156 C 198.471 39.827,198.790 39.598,197.767 39.606 C 197.345 39.609,196.730 39.795,196.400 40.018 M192.600 40.800 C 192.308 41.273,192.699 41.273,193.800 40.800 C 194.571 40.469,194.569 40.455,193.724 40.428 C 193.242 40.413,192.736 40.580,192.600 40.800 M165.000 46.400 C 164.496 46.617,164.422 46.744,164.800 46.744 C 165.130 46.744,165.760 46.589,166.200 46.400 C 166.704 46.183,166.778 46.056,166.400 46.056 C 166.070 46.056,165.440 46.211,165.000 46.400 M161.000 47.200 C 160.496 47.417,160.422 47.544,160.800 47.544 C 161.130 47.544,161.760 47.389,162.200 47.200 C 162.704 46.983,162.778 46.856,162.400 46.856 C 162.070 46.856,161.440 47.011,161.000 47.200 M153.000 48.800 C 151.893 49.082,151.877 49.109,152.800 49.147 C 153.350 49.169,154.070 49.013,154.400 48.800 C 155.081 48.360,154.729 48.360,153.000 48.800 M149.000 49.600 C 147.911 49.877,147.893 49.907,148.800 49.925 C 149.350 49.935,150.160 49.789,150.600 49.600 C 151.586 49.176,150.666 49.176,149.000 49.600 M144.800 50.400 C 143.433 50.688,143.428 50.695,144.600 50.719 C 145.260 50.733,146.160 50.589,146.600 50.400 C 147.562 49.987,146.764 49.987,144.800 50.400 M139.000 51.610 C 138.466 51.847,138.798 51.886,140.000 51.727 C 140.990 51.596,141.875 51.424,141.967 51.344 C 142.314 51.043,139.764 51.272,139.000 51.610 M135.200 52.406 C 134.778 52.682,135.015 52.723,136.000 52.542 C 137.725 52.225,138.051 51.998,136.767 52.006 C 136.235 52.009,135.530 52.189,135.200 52.406 M131.200 53.195 C 130.791 53.455,131.110 53.499,132.200 53.332 C 134.177 53.029,134.514 52.798,132.967 52.806 C 132.325 52.809,131.530 52.984,131.200 53.195 M123.390 54.816 C 123.221 55.089,123.523 55.138,124.266 54.960 C 125.799 54.592,125.944 54.400,124.690 54.400 C 124.117 54.400,123.532 54.587,123.390 54.816 M119.600 55.618 C 119.162 55.915,119.324 55.952,120.200 55.756 C 121.671 55.427,121.990 55.198,120.967 55.206 C 120.545 55.209,119.930 55.395,119.600 55.618 M115.600 56.406 C 115.178 56.682,115.415 56.723,116.400 56.542 C 118.125 56.225,118.451 55.998,117.167 56.006 C 116.635 56.009,115.930 56.189,115.600 56.406 M107.800 58.000 C 107.508 58.473,107.899 58.473,109.000 58.000 C 109.771 57.669,109.769 57.655,108.924 57.628 C 108.442 57.613,107.936 57.780,107.800 58.000 M103.800 58.800 C 103.508 59.273,103.899 59.273,105.000 58.800 C 105.771 58.469,105.769 58.455,104.924 58.428 C 104.442 58.413,103.936 58.580,103.800 58.800 M96.000 60.418 C 95.562 60.715,95.724 60.752,96.600 60.556 C 98.071 60.227,98.390 59.998,97.367 60.006 C 96.945 60.009,96.330 60.195,96.000 60.418 M68.200 66.000 C 67.111 66.277,67.093 66.307,68.000 66.325 C 68.550 66.335,69.360 66.189,69.800 66.000 C 70.786 65.576,69.866 65.576,68.200 66.000 M59.300 67.876 C 59.685 67.976,60.315 67.976,60.700 67.876 C 61.085 67.775,60.770 67.693,60.000 67.693 C 59.230 67.693,58.915 67.775,59.300 67.876 M50.400 69.606 C 49.978 69.882,50.215 69.923,51.200 69.742 C 52.925 69.425,53.251 69.198,51.967 69.206 C 51.435 69.209,50.730 69.389,50.400 69.606 M46.400 70.406 C 45.978 70.682,46.215 70.723,47.200 70.542 C 48.925 70.225,49.251 69.998,47.967 70.006 C 47.435 70.009,46.730 70.189,46.400 70.406 M42.400 71.206 C 41.978 71.482,42.215 71.523,43.200 71.342 C 44.925 71.025,45.251 70.798,43.967 70.806 C 43.435 70.809,42.730 70.989,42.400 71.206 M38.800 72.018 C 38.362 72.315,38.524 72.352,39.400 72.156 C 40.871 71.827,41.190 71.598,40.167 71.606 C 39.745 71.609,39.130 71.795,38.800 72.018 M35.280 72.880 C 34.734 73.426,34.555 331.001,35.100 331.338 C 35.265 331.440,35.354 273.395,35.299 202.349 L 35.198 73.175 36.099 72.813 C 36.651 72.591,36.760 72.441,36.380 72.425 C 36.039 72.411,35.544 72.616,35.280 72.880 M233.500 105.632 C 232.759 106.063,232.367 149.285,233.100 149.738 C 233.265 149.840,233.352 140.041,233.293 127.962 C 233.208 110.449,233.289 105.999,233.693 105.997 C 233.972 105.996,261.380 105.979,294.600 105.959 C 327.820 105.939,354.550 105.778,354.000 105.601 C 352.467 105.108,234.347 105.138,233.500 105.632 M364.768 115.500 C 364.959 116.881,364.987 116.909,365.119 115.851 C 365.198 115.219,365.105 114.545,364.912 114.352 C 364.710 114.150,364.649 114.640,364.768 115.500 M123.200 140.353 C 122.430 140.489,124.680 140.602,128.200 140.604 C 131.980 140.606,133.863 140.496,132.800 140.334 C 130.620 140.001,125.127 140.012,123.200 140.353 M136.800 141.200 C 137.130 141.413,137.670 141.588,138.000 141.588 C 138.533 141.588,138.533 141.545,138.000 141.200 C 137.670 140.987,137.130 140.812,136.800 140.812 C 136.267 140.812,136.267 140.855,136.800 141.200 M152.944 148.309 C 153.260 148.821,155.600 150.553,155.600 150.275 C 155.600 150.176,154.939 149.591,154.132 148.975 C 153.324 148.359,152.789 148.059,152.944 148.309 M99.375 151.300 L 98.200 152.600 99.500 151.425 C 100.712 150.330,100.984 150.000,100.675 150.000 C 100.606 150.000,100.021 150.585,99.375 151.300 M262.700 150.300 C 278.595 150.358,304.605 150.358,320.500 150.300 C 336.395 150.242,323.390 150.195,291.600 150.195 C 259.810 150.195,246.805 150.242,262.700 150.300 M349.800 214.044 L 349.800 278.011 291.844 278.003 C 249.368 277.997,233.743 278.115,233.344 278.446 C 232.748 278.941,232.520 290.979,233.100 291.339 C 233.265 291.441,233.346 288.662,233.281 285.163 C 233.187 280.154,233.272 278.799,233.681 278.797 C 233.966 278.796,260.235 278.797,292.056 278.800 C 344.548 278.805,349.935 278.746,350.156 278.170 C 350.511 277.244,350.456 150.482,350.100 150.262 C 349.935 150.160,349.800 178.862,349.800 214.044 M156.800 151.325 C 156.800 151.394,157.385 151.979,158.100 152.625 L 159.400 153.800 158.225 152.500 C 157.130 151.288,156.800 151.016,156.800 151.325 M273.800 159.097 L 285.200 159.212 285.200 171.406 L 285.200 183.600 273.806 183.600 L 262.412 183.600 262.297 171.600 L 262.182 159.600 262.191 171.700 L 262.200 183.800 273.800 183.800 L 285.400 183.800 285.400 171.400 L 285.400 159.000 273.900 158.991 L 262.400 158.981 273.800 159.097 M290.181 159.304 C 290.075 159.582,290.036 165.207,290.094 171.804 L 290.200 183.800 301.767 183.800 C 310.820 183.800,313.356 183.689,313.437 183.290 C 313.494 183.010,313.449 182.965,313.337 183.190 C 313.205 183.456,309.130 183.600,301.767 183.600 L 290.400 183.600 290.400 171.388 L 290.400 159.176 301.962 159.288 C 308.321 159.350,313.441 159.265,313.339 159.100 C 312.992 158.540,290.398 158.739,290.181 159.304 M322.600 159.082 C 332.611 159.365,341.509 159.374,341.339 159.100 C 341.237 158.935,336.078 158.838,329.876 158.884 C 323.674 158.931,320.400 159.020,322.600 159.082 M318.178 171.400 C 318.178 178.220,318.232 181.066,318.299 177.725 C 318.366 174.384,318.366 168.804,318.299 165.325 C 318.233 161.846,318.178 164.580,318.178 171.400 M90.637 161.000 C 90.276 161.550,90.137 162.000,90.327 162.000 C 90.516 162.000,90.877 161.550,91.127 161.000 C 91.378 160.450,91.517 160.000,91.437 160.000 C 91.357 160.000,90.997 160.450,90.637 161.000 M164.360 160.600 C 165.034 161.905,165.588 162.628,165.585 162.200 C 165.583 161.980,165.214 161.350,164.764 160.800 C 164.221 160.136,164.085 160.069,164.360 160.600 M88.200 165.200 C 87.859 165.860,87.669 166.400,87.779 166.400 C 87.889 166.400,88.259 165.860,88.600 165.200 C 88.941 164.540,89.131 164.000,89.021 164.000 C 88.911 164.000,88.541 164.540,88.200 165.200 M115.138 165.185 C 114.113 165.828,113.137 166.590,112.969 166.877 C 112.791 167.181,112.985 167.131,113.431 166.759 C 113.854 166.407,115.010 165.644,116.000 165.063 C 116.990 164.483,117.620 164.009,117.400 164.011 C 117.180 164.013,116.162 164.542,115.138 165.185 M134.033 164.149 C 134.445 164.517,136.800 165.600,136.800 165.421 C 136.800 165.190,134.582 164.000,134.153 164.000 C 133.996 164.000,133.942 164.067,134.033 164.149 M166.996 165.900 C 167.151 166.285,167.647 167.549,168.097 168.708 C 168.548 169.868,168.989 170.744,169.076 170.657 C 169.274 170.459,167.191 165.200,166.915 165.200 C 166.805 165.200,166.841 165.515,166.996 165.900 M140.000 168.200 C 140.746 168.970,141.447 169.600,141.557 169.600 C 141.667 169.600,141.146 168.970,140.400 168.200 C 139.654 167.430,138.953 166.800,138.843 166.800 C 138.733 166.800,139.254 167.430,140.000 168.200 M85.257 171.244 C 84.786 172.378,84.408 173.508,84.417 173.753 C 84.426 173.999,84.876 173.135,85.417 171.833 C 85.957 170.531,86.335 169.402,86.257 169.324 C 86.179 169.245,85.729 170.109,85.257 171.244 M105.178 176.698 C 104.274 178.501,104.287 178.679,105.220 177.283 C 105.704 176.559,106.017 175.883,105.915 175.782 C 105.813 175.680,105.481 176.092,105.178 176.698 M170.800 176.910 C 170.800 177.483,170.987 178.068,171.216 178.210 C 171.489 178.379,171.538 178.077,171.360 177.334 C 170.992 175.801,170.800 175.656,170.800 176.910 M82.846 178.067 C 82.821 178.434,82.696 179.064,82.570 179.467 C 82.352 180.162,82.363 180.163,82.797 179.487 C 83.048 179.096,83.173 178.466,83.073 178.087 C 82.911 177.468,82.888 177.466,82.846 178.067 M82.054 181.467 C 82.025 181.944,81.896 182.664,81.770 183.067 C 81.552 183.761,81.564 183.762,81.996 183.088 C 82.247 182.697,82.375 181.977,82.281 181.488 C 82.109 180.601,82.109 180.601,82.054 181.467 M330.000 183.600 L 318.600 183.819 329.876 183.909 C 337.062 183.967,341.242 183.855,341.400 183.600 C 341.536 183.380,341.592 183.241,341.524 183.291 C 341.456 183.340,336.270 183.480,330.000 183.600 M102.249 184.615 C 102.112 184.973,102.015 185.566,102.034 185.933 C 102.053 186.300,102.227 186.069,102.421 185.420 C 102.798 184.158,102.665 183.533,102.249 184.615 M148.244 185.000 C 148.573 186.471,148.802 186.790,148.794 185.767 C 148.791 185.345,148.605 184.730,148.382 184.400 C 148.085 183.962,148.048 184.124,148.244 185.000 M149.082 188.821 C 149.208 189.799,149.375 190.675,149.455 190.767 C 149.781 191.142,149.560 188.155,149.221 187.621 C 148.984 187.246,148.935 187.670,149.082 188.821 M173.246 188.800 C 173.227 189.350,173.387 190.070,173.600 190.400 C 174.094 191.164,174.094 190.342,173.600 188.800 L 173.280 187.800 173.246 188.800 M101.309 190.400 C 101.309 191.390,101.387 191.795,101.482 191.300 C 101.578 190.805,101.578 189.995,101.482 189.500 C 101.387 189.005,101.309 189.410,101.309 190.400 M233.862 189.100 C 233.760 189.265,238.834 189.400,245.138 189.400 L 256.600 189.400 256.600 201.600 L 256.600 213.800 245.138 213.800 C 238.834 213.800,233.760 213.935,233.862 214.100 C 234.192 214.635,256.178 214.462,256.720 213.920 C 257.406 213.234,257.406 189.966,256.720 189.280 C 256.178 188.738,234.192 188.565,233.862 189.100 M262.665 189.094 C 262.561 189.262,267.589 189.350,273.838 189.288 L 285.200 189.176 285.200 201.582 L 285.200 213.988 273.900 214.103 L 262.600 214.218 274.000 214.209 L 285.400 214.200 285.400 201.600 L 285.400 189.000 274.127 188.894 C 267.928 188.835,262.770 188.925,262.665 189.094 M290.665 189.094 C 290.561 189.262,295.530 189.349,301.707 189.288 C 310.484 189.200,313.016 189.287,313.299 189.688 C 313.575 190.078,313.622 190.057,313.497 189.600 C 313.319 188.944,291.063 188.451,290.665 189.094 M318.480 189.280 C 318.128 189.632,318.000 192.924,318.000 201.600 C 318.000 210.276,318.128 213.568,318.480 213.920 C 319.022 214.462,341.008 214.635,341.338 214.100 C 341.440 213.935,336.366 213.800,330.062 213.800 L 318.600 213.800 318.600 201.600 L 318.600 189.400 330.062 189.400 C 336.366 189.400,341.440 189.265,341.338 189.100 C 341.008 188.565,319.022 188.738,318.480 189.280 M80.467 190.450 C 80.430 191.248,80.311 192.508,80.201 193.250 L 80.003 194.600 80.423 193.260 C 80.654 192.523,80.774 191.263,80.689 190.460 L 80.534 189.000 80.467 190.450 M233.377 201.600 C 233.377 208.090,233.432 210.745,233.499 207.500 C 233.566 204.255,233.566 198.945,233.499 195.700 C 233.432 192.455,233.377 195.110,233.377 201.600 M100.564 201.000 C 100.563 204.740,100.623 206.324,100.697 204.520 C 100.771 202.715,100.772 199.655,100.698 197.720 C 100.625 195.784,100.564 197.260,100.564 201.000 M150.160 200.200 C 150.161 203.500,150.222 204.797,150.298 203.082 C 150.373 201.367,150.372 198.667,150.297 197.082 C 150.221 195.497,150.159 196.900,150.160 200.200 M174.161 200.800 C 174.161 204.210,174.222 205.605,174.297 203.900 C 174.372 202.195,174.372 199.405,174.297 197.700 C 174.222 195.995,174.161 197.390,174.161 200.800 M79.748 200.800 C 79.748 203.110,79.814 204.055,79.895 202.900 C 79.976 201.745,79.976 199.855,79.895 198.700 C 79.814 197.545,79.748 198.490,79.748 200.800 M80.291 209.800 C 80.411 211.340,80.575 212.675,80.655 212.767 C 80.922 213.073,80.709 209.416,80.389 208.200 C 80.198 207.472,80.159 208.102,80.291 209.800 M149.301 211.400 C 149.305 212.280,149.387 212.593,149.483 212.095 C 149.579 211.598,149.575 210.878,149.475 210.495 C 149.375 210.113,149.296 210.520,149.301 211.400 M101.301 211.800 C 101.305 212.680,101.387 212.993,101.483 212.495 C 101.579 211.998,101.575 211.278,101.475 210.895 C 101.375 210.513,101.296 210.920,101.301 211.800 M173.473 211.353 C 173.323 211.745,173.211 212.366,173.225 212.733 C 173.242 213.175,173.381 213.074,173.637 212.434 C 173.849 211.903,173.961 211.282,173.885 211.054 C 173.809 210.827,173.624 210.961,173.473 211.353 M313.200 213.545 C 313.200 213.908,310.453 213.997,301.838 213.912 C 295.589 213.850,290.559 213.935,290.661 214.100 C 290.965 214.590,313.111 214.467,313.416 213.973 C 313.561 213.739,313.572 213.439,313.440 213.307 C 313.308 213.175,313.200 213.282,313.200 213.545 M148.454 215.067 C 148.425 215.544,148.296 216.264,148.170 216.667 C 147.952 217.361,147.964 217.362,148.396 216.688 C 148.647 216.297,148.775 215.577,148.681 215.088 C 148.509 214.201,148.509 214.201,148.454 215.067 M81.068 216.200 C 81.371 218.177,81.602 218.514,81.594 216.967 C 81.591 216.325,81.416 215.530,81.205 215.200 C 80.945 214.791,80.901 215.110,81.068 216.200 M102.006 215.833 C 102.009 216.255,102.195 216.870,102.418 217.200 C 102.715 217.638,102.752 217.476,102.556 216.600 C 102.227 215.129,101.998 214.810,102.006 215.833 M172.656 216.084 C 172.521 216.588,172.427 217.360,172.446 217.800 C 172.465 218.240,172.645 217.898,172.846 217.040 C 173.236 215.378,173.070 214.540,172.656 216.084 M233.680 217.680 C 233.324 218.036,233.224 221.216,233.291 229.980 L 233.382 241.800 233.591 229.800 L 233.800 217.800 244.800 217.590 L 255.800 217.381 244.980 217.290 C 236.994 217.224,234.034 217.326,233.680 217.680 M256.355 217.746 C 256.695 218.156,256.793 221.589,256.712 230.317 C 256.650 236.921,256.735 242.241,256.900 242.139 C 257.591 241.711,257.245 217.703,256.543 217.434 C 256.015 217.231,255.978 217.292,256.355 217.746 M273.811 217.497 L 285.222 217.612 285.111 229.987 C 285.050 236.792,285.138 242.223,285.306 242.054 C 285.474 241.886,285.564 236.270,285.506 229.574 L 285.400 217.400 273.900 217.391 L 262.400 217.381 273.811 217.497 M290.400 217.500 C 290.400 217.665,295.603 217.800,301.962 217.800 C 308.321 217.800,313.440 217.665,313.338 217.500 C 313.236 217.335,308.033 217.200,301.776 217.200 C 295.519 217.200,290.400 217.335,290.400 217.500 M318.243 217.833 C 317.890 218.753,317.944 241.918,318.300 242.138 C 318.465 242.240,318.600 236.806,318.600 230.062 L 318.600 217.800 330.062 217.800 C 336.366 217.800,341.440 217.665,341.338 217.500 C 340.924 216.830,318.504 217.153,318.243 217.833 M81.858 219.600 C 82.175 221.325,82.402 221.651,82.394 220.367 C 82.391 219.835,82.211 219.130,81.994 218.800 C 81.718 218.378,81.677 218.615,81.858 219.600 M104.400 222.953 C 104.400 223.382,105.590 225.600,105.821 225.600 C 105.931 225.600,105.723 225.015,105.359 224.300 C 104.617 222.840,104.400 222.536,104.400 222.953 M83.444 225.800 C 83.773 227.271,84.002 227.590,83.994 226.567 C 83.991 226.145,83.805 225.530,83.582 225.200 C 83.285 224.762,83.248 224.924,83.444 225.800 M84.416 228.654 C 84.407 228.904,84.663 229.714,84.984 230.454 C 85.306 231.194,85.576 231.596,85.584 231.346 C 85.593 231.096,85.337 230.286,85.016 229.546 C 84.694 228.806,84.424 228.404,84.416 228.654 M110.400 232.200 C 111.146 232.970,111.847 233.600,111.957 233.600 C 112.067 233.600,111.546 232.970,110.800 232.200 C 110.054 231.430,109.353 230.800,109.243 230.800 C 109.133 230.800,109.654 231.430,110.400 232.200 M139.906 232.611 C 139.084 233.375,138.554 234.000,138.727 234.000 C 138.901 234.000,139.654 233.370,140.400 232.600 C 142.141 230.803,141.843 230.810,139.906 232.611 M164.653 238.100 L 163.933 239.400 164.758 238.400 C 165.489 237.513,165.814 236.800,165.486 236.800 C 165.424 236.800,165.049 237.385,164.653 238.100 M123.115 238.872 C 123.492 239.021,124.700 239.144,125.800 239.144 C 126.900 239.144,128.108 239.021,128.485 238.872 C 128.862 238.722,127.654 238.600,125.800 238.600 C 123.946 238.600,122.738 238.722,123.115 238.872 M93.600 245.523 C 93.600 245.694,94.410 246.628,95.400 247.600 C 96.390 248.572,97.200 249.265,97.200 249.141 C 97.200 249.017,96.390 248.083,95.400 247.064 C 94.410 246.045,93.600 245.352,93.600 245.523 M156.000 249.000 C 154.361 250.650,153.110 252.000,153.220 252.000 C 153.330 252.000,154.761 250.650,156.400 249.000 C 158.039 247.350,159.290 246.000,159.180 246.000 C 159.070 246.000,157.639 247.350,156.000 249.000 M233.467 247.867 C 233.133 248.200,233.111 271.302,233.443 272.167 C 233.760 272.993,255.902 273.138,256.720 272.320 C 257.259 271.781,257.423 248.970,256.894 248.137 C 256.732 247.882,256.656 252.823,256.723 259.117 C 256.791 265.410,256.742 270.976,256.614 271.486 L 256.382 272.412 245.091 272.306 L 233.800 272.200 233.800 259.900 C 233.800 253.135,233.785 247.600,233.767 247.600 C 233.748 247.600,233.613 247.720,233.467 247.867 M262.181 248.105 C 262.075 248.382,262.036 253.917,262.094 260.405 L 262.201 272.200 262.400 259.900 C 262.510 253.135,262.549 247.600,262.487 247.600 C 262.426 247.600,262.288 247.827,262.181 248.105 M285.200 259.920 L 285.399 272.200 285.506 260.226 C 285.564 253.640,285.474 248.114,285.306 247.946 C 285.138 247.777,285.090 253.165,285.200 259.920 M289.843 248.233 C 289.353 249.510,289.572 271.812,290.080 272.320 C 290.898 273.138,313.040 272.993,313.357 272.167 C 313.710 271.247,313.656 248.082,313.300 247.862 C 313.135 247.760,313.000 253.194,313.000 259.938 L 313.000 272.200 301.828 272.306 C 293.156 272.389,290.583 272.300,290.334 271.906 C 289.847 271.139,289.921 249.295,290.414 248.374 C 290.652 247.929,290.670 247.600,290.457 247.600 C 290.253 247.600,289.976 247.885,289.843 248.233 M101.469 252.432 C 101.966 253.033,104.400 254.564,104.400 254.276 C 104.400 254.183,103.635 253.602,102.700 252.985 C 101.765 252.368,101.211 252.120,101.469 252.432 M137.000 259.600 C 136.708 260.073,137.099 260.073,138.200 259.600 C 138.971 259.269,138.969 259.255,138.124 259.228 C 137.642 259.213,137.136 259.380,137.000 259.600 M121.600 260.380 C 122.599 260.720,125.082 260.932,124.767 260.651 C 124.675 260.569,123.700 260.399,122.600 260.272 C 121.251 260.116,120.926 260.151,121.600 260.380 M132.200 260.400 L 130.600 260.686 132.000 260.715 C 132.770 260.731,133.760 260.589,134.200 260.400 C 135.143 259.995,134.462 259.995,132.200 260.400 M268.124 272.699 C 271.383 272.767,276.603 272.766,279.724 272.699 C 282.846 272.631,280.180 272.576,273.800 272.577 C 267.420 272.577,264.866 272.632,268.124 272.699 M364.768 281.700 C 364.649 282.560,364.710 283.050,364.912 282.848 C 365.105 282.655,365.198 281.981,365.119 281.349 C 364.987 280.291,364.959 280.319,364.768 281.700 M361.375 288.100 L 360.200 289.400 361.500 288.225 C 362.215 287.579,362.800 286.994,362.800 286.925 C 362.800 286.616,362.470 286.888,361.375 288.100 M36.400 332.005 C 36.730 332.216,37.525 332.391,38.167 332.394 C 39.714 332.402,39.377 332.171,37.400 331.868 C 36.310 331.701,35.991 331.745,36.400 332.005 M40.800 332.805 C 41.130 333.016,41.925 333.191,42.567 333.194 C 44.114 333.202,43.777 332.971,41.800 332.668 C 40.710 332.501,40.391 332.545,40.800 332.805 M45.400 333.597 C 46.164 333.928,49.114 334.155,48.767 333.856 C 48.675 333.777,47.700 333.609,46.600 333.482 C 45.313 333.333,44.885 333.374,45.400 333.597 M51.300 334.676 C 51.685 334.776,52.315 334.776,52.700 334.676 C 53.085 334.575,52.770 334.493,52.000 334.493 C 51.230 334.493,50.915 334.575,51.300 334.676 M55.700 335.476 C 56.085 335.576,56.715 335.576,57.100 335.476 C 57.485 335.375,57.170 335.293,56.400 335.293 C 55.630 335.293,55.315 335.375,55.700 335.476 M60.433 336.147 C 60.525 336.228,61.320 336.404,62.200 336.538 C 63.315 336.707,63.558 336.671,63.000 336.419 C 62.232 336.071,60.090 335.844,60.433 336.147 M71.000 338.000 C 71.440 338.189,72.070 338.344,72.400 338.344 C 72.778 338.344,72.704 338.217,72.200 338.000 C 71.760 337.811,71.130 337.656,70.800 337.656 C 70.422 337.656,70.496 337.783,71.000 338.000 M75.400 338.800 C 75.840 338.989,76.470 339.144,76.800 339.144 C 77.178 339.144,77.104 339.017,76.600 338.800 C 76.160 338.611,75.530 338.456,75.200 338.456 C 74.822 338.456,74.896 338.583,75.400 338.800 M79.800 339.600 C 80.240 339.789,80.960 339.938,81.400 339.932 C 82.043 339.923,82.004 339.857,81.200 339.600 C 79.832 339.162,78.781 339.162,79.800 339.600 M93.800 342.000 C 93.936 342.220,94.442 342.387,94.924 342.372 C 95.769 342.345,95.771 342.331,95.000 342.000 C 93.899 341.527,93.508 341.527,93.800 342.000 M98.200 342.800 C 98.336 343.020,98.842 343.187,99.324 343.172 C 100.169 343.145,100.171 343.131,99.400 342.800 C 98.299 342.327,97.908 342.327,98.200 342.800 M102.800 343.582 C 103.130 343.805,103.745 343.991,104.167 343.994 C 105.190 344.002,104.871 343.773,103.400 343.444 C 102.524 343.248,102.362 343.285,102.800 343.582 M107.200 344.382 C 107.530 344.605,108.145 344.791,108.567 344.794 C 109.590 344.802,109.271 344.573,107.800 344.244 C 106.924 344.048,106.762 344.085,107.200 344.382 M111.600 345.182 C 111.930 345.405,112.545 345.591,112.967 345.594 C 113.990 345.602,113.671 345.373,112.200 345.044 C 111.324 344.848,111.162 344.885,111.600 345.182 M116.000 346.005 C 116.330 346.216,117.125 346.391,117.767 346.394 C 119.314 346.402,118.977 346.171,117.000 345.868 C 115.910 345.701,115.591 345.745,116.000 346.005 M120.800 346.782 C 121.130 347.005,121.745 347.191,122.167 347.194 C 123.190 347.202,122.871 346.973,121.400 346.644 C 120.524 346.448,120.362 346.485,120.800 346.782 M125.004 347.606 C 125.138 347.823,125.807 348.000,126.490 348.000 C 128.001 348.000,127.849 347.800,126.080 347.463 C 125.255 347.306,124.852 347.360,125.004 347.606 M135.300 349.476 C 135.685 349.576,136.315 349.576,136.700 349.476 C 137.085 349.375,136.770 349.293,136.000 349.293 C 135.230 349.293,134.915 349.375,135.300 349.476 M140.100 350.276 C 140.485 350.376,141.115 350.376,141.500 350.276 C 141.885 350.175,141.570 350.093,140.800 350.093 C 140.030 350.093,139.715 350.175,140.100 350.276 M144.500 351.076 C 144.885 351.176,145.515 351.176,145.900 351.076 C 146.285 350.975,145.970 350.893,145.200 350.893 C 144.430 350.893,144.115 350.975,144.500 351.076 M149.105 351.883 C 149.602 351.979,150.322 351.975,150.705 351.875 C 151.087 351.775,150.680 351.696,149.800 351.701 C 148.920 351.705,148.607 351.787,149.105 351.883 M158.033 353.344 C 158.125 353.424,159.010 353.596,160.000 353.727 C 161.202 353.886,161.534 353.847,161.000 353.610 C 160.236 353.272,157.686 353.043,158.033 353.344 M164.200 354.400 C 164.640 354.589,165.360 354.738,165.800 354.732 C 166.443 354.723,166.404 354.657,165.600 354.400 C 164.232 353.962,163.181 353.962,164.200 354.400 M169.000 355.200 C 169.440 355.389,170.070 355.544,170.400 355.544 C 170.778 355.544,170.704 355.417,170.200 355.200 C 169.760 355.011,169.130 354.856,168.800 354.856 C 168.422 354.856,168.496 354.983,169.000 355.200 M173.000 356.000 C 173.440 356.189,174.160 356.338,174.600 356.332 C 175.243 356.323,175.204 356.257,174.400 356.000 C 173.032 355.562,171.981 355.562,173.000 356.000 M182.400 357.582 C 182.730 357.805,183.345 357.991,183.767 357.994 C 184.790 358.002,184.471 357.773,183.000 357.444 C 182.124 357.248,181.962 357.285,182.400 357.582 M187.000 358.400 C 187.440 358.589,188.070 358.744,188.400 358.744 C 188.778 358.744,188.704 358.617,188.200 358.400 C 187.760 358.211,187.130 358.056,186.800 358.056 C 186.422 358.056,186.496 358.183,187.000 358.400 M191.390 359.184 C 191.532 359.413,192.117 359.600,192.690 359.600 C 193.944 359.600,193.799 359.408,192.266 359.040 C 191.523 358.862,191.221 358.911,191.390 359.184 M200.400 360.782 C 200.730 361.005,201.345 361.191,201.767 361.194 C 202.790 361.202,202.471 360.973,201.000 360.644 C 200.124 360.448,199.962 360.485,200.400 360.782 M204.990 361.584 C 205.132 361.813,205.717 362.000,206.290 362.000 C 207.544 362.000,207.399 361.808,205.866 361.440 C 205.123 361.262,204.821 361.311,204.990 361.584 M209.600 362.394 C 209.930 362.611,210.635 362.791,211.167 362.794 C 212.451 362.802,212.125 362.575,210.400 362.258 C 209.415 362.077,209.178 362.118,209.600 362.394 M214.000 363.194 C 214.330 363.411,215.035 363.591,215.567 363.594 C 216.851 363.602,216.525 363.375,214.800 363.058 C 213.815 362.877,213.578 362.918,214.000 363.194 M218.400 363.994 C 218.730 364.211,219.435 364.391,219.967 364.394 C 221.251 364.402,220.925 364.175,219.200 363.858 C 218.215 363.677,217.978 363.718,218.400 363.994 M223.013 364.836 C 224.047 365.240,226.303 365.281,226.535 364.900 C 226.635 364.735,225.706 364.584,224.471 364.564 C 223.039 364.541,222.511 364.640,223.013 364.836 " stroke="none" fill="#c5dff4" fill-rule="evenodd"></path></g></svg>